<?xml version="1.0" standalone="no"?>
<!DOCTYPE svg PUBLIC "-//W3C//DTD SVG 1.1//EN" "http://www.w3.org/Graphics/SVG/1.1/DTD/svg11.dtd" >
<svg xmlns="http://www.w3.org/2000/svg">
<metadata>Generated by IcoMoon</metadata>
<defs>
<font id="icomoon" horiz-adv-x="1024">
<font-face units-per-em="1024" ascent="960" descent="-64" />
<missing-glyph horiz-adv-x="1024" />
<glyph unicode="&#x20;" horiz-adv-x="512" d="" />
<glyph unicode="&#xe900;" glyph-name="Remesas" horiz-adv-x="1179" d="M252.299 669.591c15.533 0.004 30.622-5.184 42.868-14.739 12.249-9.558 20.95-22.932 24.724-38.003l24.517-98.003c2.554-10.268 2.743-21.011 0.543-31.359-2.2-10.352-6.73-20.064-13.241-28.405-6.513-8.341-14.839-15.090-24.345-19.735s-19.947-7.066-30.529-7.078h-67.577l-38.036-177.31c-2.391-11.143-13.362-18.237-24.504-15.847-11.143 2.392-18.238 13.362-15.848 24.505l41.534 193.614c2.041 9.514 10.448 16.31 20.176 16.31h84.206c0.003 0-0.004 0 0 0 4.314 0.006 8.581 0.993 12.458 2.889 3.879 1.896 7.277 4.648 9.934 8.052s4.505 7.367 5.403 11.59c0.897 4.217 0.824 8.586-0.215 12.769-0.002 0.006 0.001-0.006 0 0l-24.511 97.987c-0.001 0 0-0.003 0 0-1.539 6.138-5.086 11.593-10.077 15.487-4.992 3.894-11.143 6.011-17.475 6.007h-218.716c-11.396 0-20.635 9.238-20.635 20.635s9.239 20.635 20.635 20.635h218.71c0.002 0-0.002 0 0 0zM566.455 885.435c-64.962 29.527-137.052 39.719-207.652 29.357-70.601-10.362-136.724-40.838-190.462-87.786s-92.817-108.379-112.564-176.95c-19.747-68.57-19.327-141.377 1.21-209.715s60.323-129.316 114.599-175.638c54.276-46.325 120.746-76.037 191.461-85.582 11.295-1.527 19.214-11.916 17.69-23.211-1.527-11.295-11.916-19.214-23.211-17.69-78.572 10.606-152.427 43.619-212.733 95.089-60.306 51.473-104.512 119.222-127.331 195.153s-23.286 156.827-1.345 233.014c21.941 76.188 65.361 144.445 125.069 196.609s133.176 86.026 211.62 97.539c78.445 11.513 158.546 0.189 230.726-32.619 72.176-32.807 133.381-85.709 176.286-152.38 42.909-66.668 65.704-144.283 65.666-223.565 0-0.003 0 0.006 0 0v-5.809c0-11.394-9.238-20.635-20.635-20.635-11.394 0-20.635 9.241-20.635 20.635v5.809c0.037 71.357-20.483 141.226-59.1 201.231s-93.699 107.617-158.661 137.143zM555.529 829.137c12.251 9.559 27.35 14.743 42.89 14.727 0.003 0-0.006 0 0 0h92.933c11.394 0 20.635-9.239 20.635-20.635s-9.241-20.635-20.635-20.635h-92.945c-6.327 0.008-12.502-2.103-17.492-5.995s-8.53-9.343-10.063-15.483l-24.452-97.987c-1.040-4.183-1.117-8.553-0.223-12.77 0.894-4.219 2.737-8.179 5.387-11.581s6.038-6.158 9.908-8.058c3.863-1.895 8.102-2.891 12.403-2.91h-0.040v-20.635l0.074 20.635c-0.012 0-0.022 0-0.034 0h51.544c9.281 0 17.42-6.197 19.89-15.143l34.099-123.442c3.035-10.985-3.41-22.348-14.395-25.383-10.988-3.035-22.351 3.41-25.386 14.395l-29.916 108.302h15.708v20.635l-19.89-5.495 4.183-15.14h-35.949c-10.569 0.037-20.989 2.476-30.475 7.134-9.489 4.655-17.793 11.407-24.284 19.745-6.495 8.338-11.006 18.042-13.2 28.38-2.191 10.338-2.005 21.039 0.546 31.294l24.461 98.010c3.761 15.081 12.462 28.472 24.719 38.034zM526.665 400.775c-22.879 0-41.425-18.547-41.425-41.425v-319.845c0-22.879 18.547-41.425 41.425-41.425h541.829c22.879 0 41.425 18.547 41.425 41.425v187.674c0 11.397 9.238 20.635 20.635 20.635 11.394 0 20.635-9.238 20.635-20.635v-187.674c0-45.67-37.025-82.696-82.696-82.696h-541.829c-45.67 0-82.696 37.025-82.696 82.696v319.845c0 45.67 37.025 82.696 82.696 82.696h243.166c11.397 0 20.635-9.238 20.635-20.635s-9.238-20.635-20.635-20.635h-243.166zM699.575-37.218c-8.086-8.031-21.15-7.987-29.181 0.102l-220.439 221.994c-8.031 8.086-7.984 21.15 0.102 29.181s21.153 7.984 29.184-0.102l220.439-221.994c8.028-8.086 7.984-21.153-0.106-29.181zM1131.275 422.124c8.059-8.059 8.059-21.125 0-29.184l-110.992-110.992c-8.059-8.059-21.122-8.059-29.181 0l-110.992 110.992c-8.059 8.059-8.059 21.125 0 29.184s21.122 8.059 29.181 0l96.402-96.402 96.399 96.402c8.059 8.059 21.125 8.059 29.184 0zM1005.683 566.908c11.397 0 20.635-9.238 20.635-20.635v-221.981c0-11.397-9.238-20.635-20.635-20.635s-20.635 9.238-20.635 20.635v221.981c0 11.397 9.238 20.635 20.635 20.635zM814.161 91.387v-20.126c0-4.735-4.44-7.696-9.47-7.696-5.328 0-9.474 2.96-9.474 7.696v20.126c-40.547 1.48-64.521 23.381-71.329 54.163-0.298 1.185-0.298 2.368-0.298 3.553 0 7.103 5.033 11.248 11.248 12.431 1.185 0.295 2.368 0.295 3.553 0.295 6.215 0 11.245-3.255 12.726-9.765 5.328-22.494 16.576-34.63 44.1-37.295v85.836c-42.62 8.583-66.594 26.342-66.594 62.746 0 39.365 30.782 59.789 66.594 61.859v14.504c0 4.735 3.848 7.696 9.474 7.696 5.325 0 9.47-2.96 9.47-7.696v-14.504c32.852-2.368 56.236-21.309 63.634-47.355 0.298-1.48 0.593-2.96 0.593-4.44 0-5.921-4.143-9.47-9.768-10.951-1.775-0.295-3.255-0.593-5.030-0.593-5.328 0-10.063 2.368-11.543 8.288-4.735 17.759-16.576 29.895-37.885 31.964v-78.432c42.027-9.176 71.627-21.904 71.627-66.597 0-43.508-33.742-64.521-71.627-65.707zM814.161 197.644v-82.876c29.302 2.073 44.988 16.576 44.988 42.031 0 29.302-19.239 34.63-44.988 40.845zM795.217 226.946v75.177c-25.749-1.775-40.845-17.166-40.845-37.587 0-19.537 9.176-31.375 40.845-37.59zM883.827 279.319l0.050-0.242c0.009-0.059 0.022-0.118 0.034-0.18 0.276-1.365 0.676-3.37 0.676-5.477 0-4.552-1.648-8.462-4.502-11.438-2.743-2.861-6.318-4.574-9.889-5.514l-0.279-0.074-0.282-0.047c-0.189-0.031-0.391-0.065-0.599-0.102-1.468-0.251-3.336-0.574-5.452-0.574-3.534 0-7.32 0.782-10.612 2.939-3.395 2.222-5.834 5.629-6.938 9.998-2.129 7.956-5.731 14.252-10.836 18.78-3.795 3.364-8.648 5.958-14.836 7.444v-66.166c19.121-4.419 36.411-10.045 49.195-20.064 14.367-11.255 22.432-27.53 22.432-51.501 0-23.543-9.216-41.456-23.869-53.515-13.023-10.718-29.972-16.53-47.759-18.044v-14.274c0-9.598-8.856-13.902-15.677-13.902-3.755 0-7.553 1.040-10.56 3.392-3.128 2.448-5.12 6.141-5.12 10.51v14.293c-18.659 1.626-34.102 7.593-45.984 17.076-13.12 10.473-21.498 24.917-25.184 41.509-0.462 1.908-0.459 3.721-0.456 4.797 0 0.059 0 0.115 0 0.168 0 5.145 1.871 9.529 5.070 12.784 3.063 3.119 7.050 4.921 11.062 5.713 1.874 0.441 3.643 0.438 4.704 0.434 0.059 0 0.115 0 0.168 0 4.18 0 8.341-1.098 11.81-3.643 3.513-2.576 5.914-6.346 6.96-10.923 2.507-10.575 6.212-17.855 11.816-22.86 4.552-4.065 10.861-7.075 20.033-8.735v73.709c-19.509 4.406-35.648 11.056-47.197 21.321-12.8 11.379-19.397 26.689-19.397 46.446 0 21.482 8.481 38.173 22.069 49.655 12.040 10.175 27.781 16.015 44.525 17.904v8.803c0 4.214 1.79 7.938 4.959 10.47 3.029 2.423 6.879 3.432 10.721 3.432 3.752 0 7.55-1.036 10.557-3.392 3.131-2.448 5.12-6.141 5.12-10.51v-8.899c32.182-4.242 55.656-24.005 63.398-51.265l0.068-0.236zM814.154 325.216v14.504c0 4.735-4.143 7.696-9.47 7.696-5.626 0-9.474-2.96-9.474-7.696v-14.504c-35.812-2.070-66.594-22.494-66.594-61.859 0-36.405 23.974-54.163 66.594-62.746v-85.836c-2.166 0.211-4.233 0.481-6.206 0.807-23.052 3.835-32.985 15.766-37.894 36.489-1.48 6.51-6.51 9.765-12.726 9.765-1.185 0-2.368 0-3.553-0.295-6.215-1.182-11.245-5.328-11.245-12.431 0-1.185 0-2.368 0.295-3.553 6.808-30.782 30.782-52.683 71.329-54.163v-20.126c0-4.735 4.146-7.696 9.474-7.696 5.030 0 9.47 2.96 9.47 7.696v20.126c37.885 1.185 71.627 22.199 71.627 65.707 0 44.693-29.6 57.422-71.627 66.597v78.432c2.166-0.211 4.233-0.524 6.206-0.937 17.436-3.658 27.425-15.075 31.679-31.027 1.48-5.921 6.215-8.288 11.543-8.288 1.552 0 2.877 0.227 4.369 0.481 0.217 0.037 0.438 0.074 0.664 0.112 5.623 1.48 9.765 5.030 9.765 10.951 0 1.48-0.295 2.96-0.593 4.44-7.398 26.047-30.779 44.988-63.634 47.355zM814.154 114.775c2.141 0.152 4.211 0.369 6.206 0.655 25.305 3.596 38.782 17.78 38.782 41.376 0 26.894-16.207 33.593-38.782 39.318-2.020 0.512-4.090 1.015-6.206 1.527v-82.876zM820.361 189.713v-68.009c10.327 1.592 17.895 5.061 23.046 9.858 6.070 5.657 9.529 13.858 9.529 25.243 0 13.002-4.112 19.624-10.252 24.039-5.458 3.922-12.878 6.411-22.323 8.868zM795.21 302.13c-2.141-0.146-4.211-0.388-6.206-0.72-21.951-3.652-34.636-18.147-34.636-36.867 0-18.196 7.959-29.715 34.636-36.231 1.967-0.481 4.034-0.934 6.206-1.359v75.177zM789.004 295.107v-60.397c-10.916 2.827-17.625 6.402-21.731 10.457-4.686 4.633-6.699 10.631-6.699 19.375 0 8.595 3.134 15.891 8.825 21.281 4.605 4.36 11.143 7.711 19.605 9.284z" />
<glyph unicode="&#xe901;" glyph-name="Retirar" horiz-adv-x="1272" d="M852.71 568.016c7.879 7.879 20.648 7.879 28.526 0l56.28-56.283c7.879-7.875 7.879-20.648 0-28.523-7.875-7.875-20.644-7.875-28.523 0l-56.283 56.283c-7.875 7.875-7.875 20.648 0 28.523zM715.484 647.571c0 62.947 51.029 113.974 113.974 113.974s113.971-51.027 113.971-113.974v-56.283c0-62.945-51.026-113.971-113.971-113.971s-113.974 51.026-113.974 113.971v56.283zM829.459 721.206c-40.668 0-73.635-32.967-73.635-73.635v-56.283c0-40.665 32.967-73.632 73.635-73.632 40.665 0 73.632 32.967 73.632 73.632v56.283c0 40.668-32.967 73.635-73.632 73.635zM461.709 741.778c-6.724 9.203-19.633 11.213-28.836 4.49-11.788-8.612-26.366-18.635-42.524-29.744-36.144-24.849-80.188-55.132-118.581-87.199-28.105-23.474-54.523-48.929-74.053-75.481-19.394-26.366-33.402-55.724-33.402-86.609v-263.097l-150.446-225.668c-6.322-9.483-3.759-22.295 5.723-28.616 9.482-6.324 22.294-3.761 28.616 5.722l153.912 230.869c2.26 3.389 3.466 7.37 3.466 11.444v269.346c0 18.426 8.504 39.216 25.378 62.157 16.738 22.755 40.344 45.773 67.264 68.257 36.949 30.863 77.652 58.824 113.073 83.16 16.818 11.555 32.448 22.292 45.922 32.133 9.2 6.723 11.211 19.633 4.49 28.835zM618.204 558.192c-9.852 4.378-20.464 6.656-31.226 6.656-10.758 0-21.374-2.278-31.226-6.656-9.474-4.211-18.022-10.271-25.234-17.783l-166.639-143.090c-8.648-7.426-9.638-20.452-2.212-29.1 7.426-8.645 20.452-9.635 29.097-2.212l167.452 143.788c0.58 0.496 1.133 1.027 1.654 1.589 3.699 3.972 8.012 7.038 12.651 9.098 4.633 2.060 9.539 3.097 14.457 3.097s9.827-1.036 14.46-3.097c4.636-2.060 8.949-5.126 12.648-9.098 3.702-3.975 6.712-8.769 8.788-14.15 2.076-5.378 3.159-11.19 3.159-17.088 0-5.896-1.083-11.708-3.159-17.088-2.076-5.378-5.086-10.172-8.788-14.147-0.289-0.31-0.571-0.633-0.841-0.962l-161.944-196.968c-3.035-3.693-4.695-8.322-4.695-13.104v-123.103c0-10.395-3.596-23.844-10.377-39.309-6.656-15.171-15.701-30.779-25.029-45.059-9.29-14.218-18.621-26.754-25.643-35.75-3.5-4.484-6.408-8.062-8.422-10.494-1.005-1.216-1.784-2.147-2.302-2.759l-0.707-0.829-0.022-0.025c-0.003-0.003 0 0 0 0-7.453-8.62-6.513-21.653 2.104-29.11 8.62-7.453 21.65-6.513 29.106 2.107l-15.605 13.501c15.605-13.501 15.602-13.504 15.605-13.501l0.031 0.034 0.059 0.071 0.202 0.233 0.72 0.847c0.618 0.729 1.502 1.781 2.619 3.131 2.225 2.693 5.378 6.572 9.145 11.397 7.516 9.626 17.569 23.127 27.66 38.574 10.054 15.388 20.39 33.078 28.275 51.054 7.754 17.681 13.852 37.224 13.852 55.886v115.709l156.871 190.799c7.162 7.817 12.788 16.964 16.629 26.919 3.922 10.169 5.927 21.020 5.927 31.946 0 10.929-2.005 21.78-5.927 31.949-3.925 10.169-9.709 19.496-17.095 27.421-7.385 7.928-16.232 14.299-26.078 18.677zM538.010 845.805c-34.859 0-63.119-28.259-63.119-63.119v-330.87c0-11.397-9.238-20.635-20.635-20.635-11.394 0-20.635 9.238-20.635 20.635v330.87c0 57.652 46.738 104.389 104.389 104.389h432.165c11.397 0 20.635-9.239 20.635-20.635s-9.238-20.635-20.635-20.635h-432.165zM1204.686 636.934c11.394 0 20.635-9.241 20.635-20.635v-166.391c0-57.651-46.738-104.389-104.392-104.389h-536.412c-11.394 0-20.635 9.238-20.635 20.635s9.241 20.635 20.635 20.635h536.412c34.863 0 63.122 28.259 63.122 63.119v166.391c0 11.394 9.238 20.635 20.635 20.635zM711.587 355.707c-8.127-7.987-21.194-7.875-29.181 0.251l-61.006 62.064c-7.99 8.127-7.879 21.191 0.251 29.181 8.127 7.987 21.191 7.875 29.181-0.251l61.006-62.064c7.987-8.127 7.875-21.191-0.251-29.181zM559.355 512.245c-8.211-7.903-21.274-7.652-29.178 0.559l-91.071 94.627c-7.903 8.211-7.652 21.274 0.559 29.178 8.214 7.903 21.274 7.652 29.178-0.559l91.071-94.627c7.903-8.211 7.652-21.274-0.559-29.178zM1033.771 820.574c-8.059 8.058-8.059 21.124 0 29.182l93.805 93.803c8.055 8.059 21.122 8.059 29.181 0l93.805-93.803c8.059-8.059 8.059-21.124 0-29.183s-21.125-8.058-29.184 0l-79.211 79.212-79.214-79.212c-8.059-8.059-21.122-8.059-29.181 0zM1142.135 697.288c-11.397 0-20.635 9.239-20.635 20.635v187.607c0 11.396 9.238 20.635 20.635 20.635s20.635-9.239 20.635-20.635v-187.607c0-11.396-9.238-20.635-20.635-20.635z" />
<glyph unicode="&#xe902;" glyph-name="movimientos" d="M18.286 555.276c0 51.090 40.556 93.867 92.241 93.867h802.944c51.683 0 92.243-42.776 92.243-93.867v-507.124c0-51.088-40.555-93.867-92.243-93.867h-802.944c-51.686 0-92.241 42.779-92.241 93.867v507.124zM110.527 588.19c-16.539 0-31.289-13.985-31.289-32.914v-507.124c0-18.929 14.75-32.914 31.289-32.914h802.944c16.54 0 31.291 13.985 31.291 32.914v507.124c0 18.929-14.75 32.914-31.291 32.914h-802.944zM359.619 301.714c0 84.158 68.221 152.381 152.381 152.381 84.158 0 152.381-68.223 152.381-152.381s-68.223-152.381-152.381-152.381c-84.16 0-152.381 68.223-152.381 152.381zM512 393.143c-50.496 0-91.429-40.931-91.429-91.429s40.932-91.429 91.429-91.429c50.498 0 91.429 40.931 91.429 91.429s-40.931 91.429-91.429 91.429zM225.524 423.653l-60.952-0.034v48.733l60.952 0.029v-48.728zM859.429 131.082l-60.952-0.034v48.733l60.952 0.029v-48.728zM67.048 764.952c0 16.832 13.645 30.476 30.476 30.476h828.952c16.833 0 30.476-13.645 30.476-30.476s-13.644-30.476-30.476-30.476h-828.952c-16.832 0-30.476 13.645-30.476 30.476zM213.333 911.238c0 16.832 13.645 30.476 30.476 30.476h536.381c16.833 0 30.476-13.645 30.476-30.476s-13.644-30.476-30.476-30.476h-536.381c-16.832 0-30.476 13.645-30.476 30.476z" />
<glyph unicode="&#xe903;" glyph-name="Ayuda" horiz-adv-x="1075" d="M280.329 840.238c68.539 64.585 161.114 100.562 257.271 100.562 96.159 0 188.733-35.977 257.27-100.561 68.603-64.646 107.53-152.745 107.53-245.039v-44.8h-64v44.8c0 74.051-31.201 145.482-87.424 198.459v0.001c-56.279 53.037-133.007 83.14-213.376 83.14s-157.094-30.103-213.38-83.141c-56.22-52.977-87.42-124.408-87.42-198.459v-44.8h-64v44.8c0 92.294 38.926 180.392 107.529 245.038v0zM172.8 513.168c-19.149-6.362-37.229-18.479-52.315-36.081l-0.002-0.002c-23.451-27.358-37.284-65.387-37.284-105.886s13.833-78.531 37.284-105.887h0.002c15.086-17.603 33.166-29.722 52.315-36.081v283.936zM71.892 518.738c34.291 40.008 81.952 63.662 132.908 63.662 17.673 0 32-14.327 32-32v-358.4c0-17.674-14.327-32-32-32-50.956 0-98.618 23.654-132.909 63.662-34.159 39.854-52.691 92.979-52.691 147.538s18.532 107.686 52.691 147.537zM870.4 224c17.674 0 32-14.326 32-32 0-62.802-24.945-123.034-69.356-167.439-44.411-44.416-104.643-69.361-167.444-69.361h-51.2c-17.674 0-32 14.326-32 32s14.326 32 32 32h51.2c45.834 0 89.784 18.207 122.184 50.611l0.005 0.005c32.404 32.399 50.611 76.349 50.611 122.184 0 17.674 14.326 32 32 32zM902.4 229.233c19.149 6.359 37.228 18.478 52.316 36.081v0c23.45 27.356 37.284 65.388 37.284 105.887s-13.834 78.529-37.284 105.886v0.002c-15.089 17.602-33.167 29.719-52.316 36.081v-283.936zM1003.305 223.662c-34.289-40.008-81.951-63.662-132.905-63.662-17.674 0-32 14.326-32 32v358.4c0 17.673 14.326 32 32 32 50.954 0 98.616-23.654 132.91-63.663 34.156-39.851 52.69-92.978 52.69-147.537s-18.534-107.684-52.69-147.538z" />
<glyph unicode="&#xe904;" glyph-name="Pagar" d="M19.2 908.8c0 17.673 14.327 32 32 32h153.6c17.673 0 32-14.327 32-32s-14.327-32-32-32h-121.6v-121.6c0-17.673-14.327-32-32-32s-32 14.327-32 32v153.6zM51.2 172.8c17.673 0 32-14.326 32-32v-121.6h121.6c17.673 0 32-14.326 32-32s-14.327-32-32-32h-153.6c-17.673 0-32 14.326-32 32v153.6c0 17.674 14.327 32 32 32zM787.2 908.8c0 17.673 14.326 32 32 32h153.6c17.674 0 32-14.327 32-32v-153.6c0-17.673-14.326-32-32-32s-32 14.327-32 32v121.6h-121.6c-17.674 0-32 14.327-32 32zM972.8 172.8c17.674 0 32-14.326 32-32v-153.6c0-17.674-14.326-32-32-32h-153.6c-17.674 0-32 14.326-32 32s14.326 32 32 32h121.6v121.6c0 17.674 14.326 32 32 32zM147.2 780.8c0 17.673 14.327 32 32 32h256c17.673 0 32-14.327 32-32v-256c0-17.673-14.327-32-32-32h-256c-17.673 0-32 14.327-32 32v256zM211.2 748.8v-192h192v192h-192zM147.2 371.2c0 17.674 14.327 32 32 32h256c17.673 0 32-14.326 32-32v-256c0-17.674-14.327-32-32-32h-256c-17.673 0-32 14.326-32 32v256zM211.2 339.2v-192h192v192h-192zM556.8 780.8c0 17.673 14.326 32 32 32h256c17.674 0 32-14.327 32-32v-256c0-17.673-14.326-32-32-32h-256c-17.674 0-32 14.327-32 32v256zM620.8 748.8v-192h192v192h-192zM556.8 371.2c0 17.674 14.326 32 32 32h51.2c17.674 0 32-14.326 32-32v-51.2c0-17.674-14.326-32-32-32h-51.2c-17.674 0-32 14.326-32 32v51.2zM761.6 371.2c0 17.674 14.326 32 32 32h51.2c17.674 0 32-14.326 32-32v-51.2c0-17.674-14.326-32-32-32h-51.2c-17.674 0-32 14.326-32 32v51.2zM761.6 166.4c0 17.674 14.326 32 32 32h51.2c17.674 0 32-14.326 32-32v-51.2c0-17.674-14.326-32-32-32h-51.2c-17.674 0-32 14.326-32 32v51.2zM659.2 268.8c0 17.674 14.326 32 32 32h51.2c17.674 0 32-14.326 32-32v-51.2c0-17.674-14.326-32-32-32h-51.2c-17.674 0-32 14.326-32 32v51.2zM556.8 166.4c0 17.674 14.326 32 32 32h51.2c17.674 0 32-14.326 32-32v-51.2c0-17.674-14.326-32-32-32h-51.2c-17.674 0-32 14.326-32 32v51.2z" />
<glyph unicode="&#xe905;" glyph-name="inicio" d="M433.31 891.443c46.974 33.926 110.403 33.926 157.379 0l337.178-243.517c48.312-34.893 76.933-90.865 76.933-150.462v-500.024c0-23.327-18.913-42.24-42.24-42.24h-266.844c-20.168 0-36.516 16.353-36.516 36.521v200.279c0 81.295-65.905 147.2-147.2 147.2s-147.2-65.905-147.2-147.2v-200.279c0-20.168-16.35-36.521-36.518-36.521h-266.842c-23.328 0-42.24 18.913-42.24 42.24v500.024c0 59.597 28.619 115.569 76.933 150.462l337.177 243.517zM553.216 839.559c-24.602 17.771-57.829 17.771-82.435 0l-337.177-243.517c-31.654-22.861-50.404-59.532-50.404-98.578v-478.264h217.6v172.8c0 116.644 94.558 211.2 211.2 211.2 116.644 0 211.2-94.556 211.2-211.2v-172.8h217.6v478.264c0 39.046-18.749 75.718-50.406 98.579l-337.178 243.516z" />
<glyph unicode="&#xe906;" glyph-name="Empagua" d="M651.187 258.876c13.367-6.178 19.196-22.025 13.018-35.392-15.454-33.442-32.333-60.501-59.503-79.339-26.961-18.697-60.651-26.948-104.563-30.852-14.669-1.301-27.618 9.532-28.924 24.205-1.301 14.669 9.532 27.618 24.201 28.919 40.683 3.614 63.296 10.739 78.895 21.555 15.394 10.671 27.328 27.264 41.485 57.886 6.178 13.367 22.025 19.196 35.392 13.018zM508.309 828.421c-6.101 6.010-14.976 6.007-21.073-0.006-36.996-36.48-103.389-108.811-158.095-205.145-54.726-96.366-96.908-215.235-87.931-345.539 10.504-152.474 131.212-229.73 256.385-229.73 125.18 0 246.012 77.269 256.708 229.76 9.139 130.304-33.011 249.165-87.761 345.53-54.729 96.332-121.203 168.661-158.234 205.132zM449.788 866.39c26.854 26.483 69.073 26.496 95.945 0.031 39.091-38.499 109.188-114.709 167.185-216.785 57.971-102.042 104.7-231.459 94.592-375.604-13.116-186.923-163.738-279.364-309.914-279.364s-296.713 92.454-309.592 279.394c-9.929 144.119 36.819 273.513 94.761 375.546 57.961 102.066 127.972 178.275 167.023 216.783z" />
<glyph unicode="&#xe907;" glyph-name="Recibir" horiz-adv-x="889" d="M337.88 731.388c-19.868 0-35.975-16.106-35.975-35.974v-277.765c0-19.868 16.106-35.975 35.975-35.975h470.539c19.868 0 35.975 16.106 35.975 35.975v162.983c0 9.898 8.022 17.92 17.92 17.92s17.92-8.022 17.92-17.92v-162.983c0-39.661-32.151-71.815-71.815-71.815h-470.539c-39.664 0-71.816 32.154-71.816 71.815v277.765c0 39.662 32.152 71.814 71.816 71.814h211.173c9.895 0 17.92-8.023 17.92-17.92s-8.025-17.92-17.92-17.92h-211.173zM754.499 640.248c-6.998-6.998-18.343-6.998-25.341 0l-96.388 96.389c-6.998 6.998-6.998 18.344 0 25.343l96.388 96.388c6.998 6.998 18.343 6.998 25.341 0s6.998-18.344 0-25.343l-83.715-83.717 83.715-83.716c6.998-6.998 6.998-18.346 0-25.344zM880.238 749.309c0-9.897-8.025-17.92-17.92-17.92h-192.779c-9.895 0-17.92 8.023-17.92 17.92s8.025 17.92 17.92 17.92h192.779c9.895 0 17.92-8.023 17.92-17.92zM489.308 350.96c-7.068-6.928-18.413-6.815-25.341 0.253l-188.985 192.784c-6.928 7.068-6.816 18.413 0.253 25.341 7.066 6.928 18.413 6.815 25.341-0.251l188.982-192.787c6.928-7.066 6.815-18.413-0.251-25.341zM305.572 35.247c3.983 0 7.211 3.228 7.211 7.211s-3.228 7.211-7.211 7.211v21.418c-15.81 0-28.629-12.813-28.629-28.629s12.819-28.629 28.629-28.629v21.418zM9.198 128.127c0 9.898 8.023 17.92 17.92 17.92h556.912c9.898 0 17.92-8.022 17.92-17.92s-8.022-17.92-17.92-17.92h-556.912c-9.897 0-17.92 8.022-17.92 17.92zM305.575 71.087c15.81 0 28.629-12.813 28.629-28.629s-12.819-28.629-28.629-28.629v21.418c-3.98 0-7.211 3.228-7.211 7.211s3.231 7.211 7.211 7.211v21.418zM9.027 861.238c0 54.545 44.217 98.762 98.762 98.762h395.318c54.544 0 98.762-44.217 98.762-98.762 0-9.897-8.022-17.92-17.92-17.92s-17.92 8.023-17.92 17.92c0 34.751-28.171 62.922-62.922 62.922h-395.318c-34.751 0-62.922-28.171-62.922-62.922v-823.512c0-34.751 28.171-62.922 62.922-62.922h395.318c34.751 0 62.922 28.171 62.922 62.922v217.196c0 9.898 8.022 17.92 17.92 17.92s17.92-8.022 17.92-17.92v-217.196c0-54.544-44.218-98.762-98.762-98.762h-395.318c-54.545 0-98.762 44.218-98.762 98.762v823.512zM600.307 517.015c6.839 6.839 17.931 6.839 24.77 0l44.487-44.487c6.842-6.839 6.842-17.931 0-24.77-6.839-6.842-17.931-6.842-24.77 0l-44.487 44.485c-6.842 6.842-6.842 17.931 0 24.773zM491.374 578.77c0 50.621 41.038 91.659 91.661 91.659s91.661-41.038 91.661-91.659v-44.487c0-50.623-41.038-91.661-91.661-91.661s-91.661 41.038-91.661 91.661v44.487zM583.036 635.397c-31.275 0-56.63-25.352-56.63-56.627v-44.487c0-31.275 25.355-56.63 56.63-56.63s56.63 25.355 56.63 56.63v44.487c0 31.275-25.355 56.627-56.63 56.627z" />
<glyph unicode="&#xe908;" glyph-name="Pro" d="M109.714 454.095c16.832 0 30.476-13.644 30.476-30.476v-365.714c0-8.085 3.211-15.833 8.926-21.548 5.715-5.72 13.467-8.928 21.55-8.928h670.476c8.085 0 15.833 3.209 21.548 8.928 5.72 5.715 8.928 13.463 8.928 21.548v365.714c0 16.833 13.644 30.476 30.476 30.476s30.476-13.644 30.476-30.476v-365.714c0-24.249-9.63-47.504-26.78-64.649-17.145-17.15-40.399-26.78-64.649-26.78h-670.476c-24.248 0-47.504 9.63-64.65 26.78-17.146 17.145-26.779 40.399-26.779 64.649v365.714c0 16.833 13.645 30.476 30.476 30.476zM877.631 941.714c13.868 0.007 27.321-4.717 38.137-13.392 10.825-8.681 18.364-20.798 21.363-34.345l55.667-250.411c0.483-2.171 0.727-4.389 0.727-6.613 0-32.331-12.844-63.338-35.703-86.2-22.864-22.862-53.872-35.705-86.201-35.705s-63.337 12.843-86.201 35.705c-1.804 1.806-3.55 3.663-5.227 5.567-1.677-1.904-3.423-3.761-5.227-5.567-22.864-22.862-53.872-35.705-86.201-35.705s-63.337 12.843-86.201 35.705c-1.804 1.806-3.55 3.663-5.227 5.567-1.677-1.904-3.423-3.761-5.227-5.567-22.864-22.862-53.872-35.705-86.201-35.705-32.331 0-63.338 12.843-86.2 35.705-1.806 1.806-3.549 3.663-5.229 5.567-1.679-1.904-3.423-3.761-5.229-5.567-22.862-22.862-53.869-35.705-86.2-35.705s-63.338 12.843-86.2 35.705c-1.806 1.806-3.549 3.663-5.229 5.567-1.679-1.904-3.423-3.761-5.229-5.567-22.862-22.862-53.869-35.705-86.2-35.705s-63.338 12.843-86.2 35.705c-22.861 22.862-35.705 53.869-35.705 86.2 0 2.223 0.243 4.439 0.725 6.609l55.629 250.433c3.028 13.529 10.584 25.67 21.406 34.336 10.82 8.665 24.269 13.386 38.131 13.385zM262.095 636.952c0-16.166 6.422-31.669 17.853-43.1s26.934-17.853 43.1-17.853c16.166 0 31.669 6.422 43.1 17.853s17.853 26.934 17.853 43.1c0 16.832 13.645 30.476 30.476 30.476s30.476-13.645 30.476-30.476c0-16.166 6.422-31.669 17.853-43.1s26.935-17.853 43.1-17.853c16.165 0 31.671 6.422 43.101 17.853s17.852 26.934 17.852 43.1c0 16.832 13.644 30.476 30.476 30.476s30.476-13.645 30.476-30.476c0-16.166 6.422-31.669 17.852-43.1s26.936-17.853 43.101-17.853c16.165 0 31.671 6.422 43.101 17.853s17.852 26.934 17.852 43.1c0 16.832 13.644 30.476 30.476 30.476s30.476-13.645 30.476-30.476c0-16.166 6.422-31.669 17.852-43.1s26.936-17.853 43.101-17.853c16.165 0 31.671 6.422 43.101 17.853 10.718 10.719 17.033 25.019 17.779 40.088l-54.867 246.822-743.5-0.032-54.82-246.787c0.745-15.070 7.059-29.371 17.779-40.090 11.431-11.431 26.934-17.853 43.1-17.853s31.669 6.422 43.1 17.853c11.431 11.431 17.853 26.934 17.853 43.1 0 16.832 13.645 30.476 30.476 30.476s30.476-13.645 30.476-30.476zM877.631 941.714c0.005 0-0.005 0 0 0zM134.177 941.714h743.455zM79.238 240.762c0 16.833 13.645 30.476 30.476 30.476h518.095c16.833 0 30.476-13.644 30.476-30.476s-13.644-30.476-30.476-30.476h-518.095c-16.832 0-30.476 13.644-30.476 30.476zM627.81 454.095c16.833 0 30.476-13.644 30.476-30.476v-426.667c0-16.833-13.644-30.476-30.476-30.476s-30.476 13.644-30.476 30.476v426.667c0 16.833 13.644 30.476 30.476 30.476z" />
<glyph unicode="&#xe909;" glyph-name="Promos" d="M188 565.038c-4.418 0-8-3.582-8-8v-112.001c0-4.418 3.582-8 8-8h616c4.418 0 8 3.582 8 8v112.001c0 4.418-3.582 8-8 8h-616zM140 557.039c0 26.509 21.49 48.001 48 48.001h616c26.509 0 48.001-21.492 48.001-48.001v-112.001c0-26.509-21.492-48.001-48.001-48.001h-616c-26.51 0-48 21.492-48 48.001v112.001zM216 437.038c11.046 0 20-8.954 20-20v-251.999c0-2.123 0.843-4.158 2.343-5.657 1.5-1.501 3.535-2.343 5.657-2.343h504c2.123 0 4.156 0.842 5.657 2.343 1.501 1.499 2.343 3.534 2.343 5.657v251.999c0 11.047 8.956 20 20 20 11.047 0 20-8.954 20-20v-251.999c0-12.73-5.058-24.941-14.059-33.942s-21.212-14.059-33.942-14.059h-504c-12.73 0-24.939 5.058-33.941 14.059s-14.059 21.212-14.059 33.942v251.999c0 11.047 8.954 20 20 20zM496.001 605.039c11.044 0 20-8.956 20-20v-448c0-11.047-8.956-20-20-20-11.047 0-20 8.954-20 20v448c0 11.044 8.954 20 20 20zM397.010 788c27.571 0.008 54.020-10.934 73.526-30.419 13.105-13.104 21.764-31.374 27.733-49.28 6.084-18.25 10.010-38.093 12.58-56.088 2.582-18.075 3.864-34.781 4.506-46.942 0.32-6.097 0.482-11.089 0.562-14.586 0.042-1.748 0.062-3.127 0.072-4.084l0.010-1.114v-0.31l0.002-0.092v-0.040c0-0.002 0-0.007-20-0.007 0-20-0.005-20-0.007-20h-0.132l-1.424 0.012c-0.957 0.010-2.335 0.030-4.084 0.070-3.497 0.082-8.489 0.245-14.586 0.564-12.161 0.639-28.869 1.923-46.944 4.506-17.992 2.57-37.836 6.496-56.085 12.58-17.908 5.969-36.17 14.621-49.272 27.723-19.486 19.508-30.435 45.963-30.428 73.536s10.964 54.013 30.46 73.51c19.498 19.496 45.938 30.453 73.511 30.461zM496.001 585.039l-0.007-20c5.302 0 10.397 2.108 14.149 5.859 3.751 3.749 5.859 8.844 5.859 14.149l-20-0.007zM475.266 605.773c-0.639 11.057-1.823 25.445-4.014 40.783-2.38 16.654-5.877 33.934-10.932 49.097-5.167 15.504-11.366 26.94-18.060 33.635-12.006 11.986-28.277 18.716-45.241 18.711-16.966-0.005-33.238-6.747-45.236-18.745s-18.739-28.269-18.744-45.238c-0.005-16.963 6.723-33.235 18.712-45.238 6.693-6.696 18.13-12.892 33.635-18.060 15.16-5.055 32.443-8.552 49.095-10.932 15.34-2.19 29.728-3.374 40.785-4.014zM598.99 788c-27.571 0.008-54.020-10.934-73.526-30.419-13.105-13.104-21.764-31.374-27.733-49.28-6.084-18.25-10.010-38.093-12.58-56.088-2.582-18.075-3.864-34.781-4.506-46.942-0.32-6.097-0.482-11.089-0.562-14.586-0.042-1.748-0.062-3.127-0.072-4.084l-0.010-1.114v-0.402l-0.002-0.040c0-0.002 0-0.007 20-0.007 0-20 0.005-20 0.007-20h0.132l1.424 0.012c0.957 0.010 2.335 0.030 4.084 0.070 3.497 0.082 8.489 0.245 14.586 0.564 12.161 0.639 28.869 1.923 46.944 4.506 17.995 2.57 37.836 6.496 56.085 12.58 17.908 5.969 36.17 14.621 49.272 27.723 19.486 19.508 30.435 45.963 30.428 73.536s-10.964 54.013-30.46 73.51c-19.496 19.496-45.938 30.453-73.511 30.461zM499.999 585.039l0.007-20c-5.302 0-10.397 2.108-14.149 5.859-3.751 3.749-5.859 8.844-5.859 14.149l20-0.007zM520.734 605.773c0.639 11.057 1.823 25.445 4.014 40.783 2.38 16.654 5.879 33.934 10.932 49.097 5.167 15.504 11.366 26.94 18.060 33.635 12.006 11.986 28.277 18.716 45.241 18.711 16.966-0.005 33.238-6.747 45.236-18.745s18.739-28.269 18.744-45.238c0.005-16.963-6.723-33.235-18.709-45.238-6.696-6.696-18.132-12.892-33.637-18.060-15.16-5.055-32.441-8.552-49.095-10.932-15.338-2.19-29.728-3.374-40.785-4.014z" />
<glyph unicode="&#xe90a;" glyph-name="Tarjeta" d="M172 600.321c0 52.092 45.204 91.678 97.577 91.678h484.847c52.374 0 97.577-39.586 97.577-91.68v-304.64c0-52.092-45.203-91.678-97.577-91.678h-484.847c-52.373 0-97.577 39.586-97.577 91.678v304.642zM269.577 652.001c-33.317 0-57.577-24.598-57.577-51.68v-87.522h600v87.52c0 27.084-24.259 51.682-57.576 51.682h-484.847zM812 472.801h-600v-177.122c0-27.081 24.26-51.68 57.577-51.68h484.847c33.317 0 57.576 24.598 57.576 51.68v177.122zM288.363 349.441c0 11.044 8.954 19.998 20 19.998h135.757c11.047 0 20-8.954 20-19.998 0-11.047-8.954-20-20-20h-135.757c-11.047 0-20 8.954-20 20z" />
<glyph unicode="&#xe90b;" glyph-name="banner-arrow" d="M95.99 447.969c0 17.673 14.327 32 32 32h767.997c17.677 0 32-14.327 32-32s-14.323-32-32-32h-767.997c-17.673 0-32 14.327-32 32zM553.373 790.627c12.497 12.497 32.758 12.497 45.254 0l320.003-320c5.997-6.001 9.37-14.14 9.37-22.627s-3.373-16.627-9.37-22.627l-320.003-320.003c-12.497-12.493-32.758-12.493-45.254 0-12.497 12.499-12.497 32.762 0 45.261l297.373 297.37-297.373 297.373c-12.497 12.497-12.497 32.758 0 45.254z" />
<glyph unicode="&#xe90c;" glyph-name="Eegsa" d="M206.060 603.151c0 164.681 133.501 298.182 298.183 298.182s298.18-133.501 298.18-298.182v-25.487c0-98.001-48.977-189.517-130.522-243.879-15.386-10.257-24.631-27.529-24.631-46.025v-81.899c0-30.955-25.088-56.043-56.043-56.043h-173.973c-30.952 0-56.044 25.088-56.044 56.043v81.899c0 18.496-9.243 35.767-24.631 46.025-81.542 54.362-130.52 145.877-130.52 243.879v25.487zM504.243 848c-135.228 0-244.85-109.622-244.85-244.849v-25.487c0-80.167 40.066-155.034 106.771-199.501 30.225-20.151 48.381-54.076 48.381-90.402v-81.899c0-1.498 1.213-2.709 2.71-2.709h173.973c1.498 0 2.709 1.212 2.709 2.709v81.899c0 36.326 18.159 70.251 48.384 90.402 66.701 44.467 106.769 119.334 106.769 199.501v25.487c0 135.226-109.623 244.849-244.847 244.849zM412.928 21.333c0 14.729 11.939 26.667 26.666 26.667h129.293c14.729 0 26.667-11.938 26.667-26.667s-11.938-26.667-26.667-26.667h-129.293c-14.727 0-26.666 11.938-26.666 26.667z" />
<glyph unicode="&#xe90d;" glyph-name="Claro" d="M144 771.232c0 71.599 57.533 130.101 129.067 130.101h435.2c71.535 0 129.067-58.502 129.067-130.101v-646.467c0-71.599-57.532-130.099-129.067-130.099h-435.2c-71.534 0-129.067 58.5-129.067 130.099v646.467zM273.067 848c-41.574 0-75.733-34.117-75.733-76.768v-646.467c0-42.65 34.159-76.766 75.733-76.766h435.2c41.574 0 75.733 34.116 75.733 76.766v646.467c0 42.651-34.159 76.768-75.733 76.768h-435.2zM451.2 176.486c0 14.724 11.938 26.667 26.667 26.667h25.6c14.729 0 26.667-11.942 26.667-26.667 0-14.729-11.938-26.667-26.667-26.667h-25.6c-14.729 0-26.667 11.938-26.667 26.667z" />
<glyph unicode="&#xe90e;" glyph-name="Tigo" d="M144 771.232c0 71.599 57.533 130.101 129.067 130.101h435.2c71.535 0 129.067-58.502 129.067-130.101v-646.467c0-71.599-57.532-130.099-129.067-130.099h-435.2c-71.534 0-129.067 58.5-129.067 130.099v646.467zM273.067 848c-41.574 0-75.733-34.117-75.733-76.768v-646.467c0-42.65 34.159-76.766 75.733-76.766h435.2c41.574 0 75.733 34.116 75.733 76.766v646.467c0 42.651-34.159 76.768-75.733 76.768h-435.2zM451.2 176.486c0 14.724 11.938 26.667 26.667 26.667h25.6c14.729 0 26.667-11.942 26.667-26.667 0-14.729-11.938-26.667-26.667-26.667h-25.6c-14.729 0-26.667 11.938-26.667 26.667z" />
<glyph unicode="&#xe90f;" glyph-name="Retirar1" horiz-adv-x="1270" d="M192.741 713.869c-45.281 0-81.988-36.707-81.988-81.988v-548.167c0-45.281 36.708-81.99 81.988-81.99h931.48c45.281 0 81.986 36.708 81.986 81.99v322.003c0 15.045 12.198 27.238 27.238 27.238 15.045 0 27.238-12.194 27.238-27.238v-322.003c0-75.366-61.096-136.466-136.462-136.466h-931.48c-75.368 0-136.465 61.1-136.465 136.466v548.167c0 75.368 61.098 136.465 136.465 136.465h417.825c15.045 0 27.238-12.195 27.238-27.238s-12.194-27.238-27.238-27.238h-417.825zM437.797-45.126c-10.83-10.441-28.074-10.125-38.516 0.705l-323.335 335.405c-10.44 10.83-10.124 28.074 0.706 38.515s28.074 10.121 38.515-0.709l323.335-335.401c10.441-10.834 10.125-28.074-0.705-38.515zM1022.538 952.022c10.637 10.637 27.881 10.637 38.519 0l191.656-191.655c10.637-10.637 10.637-27.884 0-38.521l-191.656-191.656c-10.637-10.637-27.881-10.637-38.519 0s-10.637 27.884 0 38.521l172.392 172.394-172.392 172.395c-10.637 10.637-10.637 27.884 0 38.521zM774.988 741.108c0 15.043 12.194 27.238 27.238 27.238h383.312c15.041 0 27.238-12.195 27.238-27.238s-12.198-27.238-27.238-27.238h-383.312c-15.045 0-27.238 12.195-27.238 27.238zM696.693 281.227c10.637 10.637 27.881 10.637 38.519 0l86.245-86.245c10.637-10.637 10.637-27.881 0-38.519s-27.881-10.637-38.519 0l-86.245 86.241c-10.637 10.637-10.637 27.886 0 38.523zM487.49 405.701c0 94.429 76.55 170.979 170.979 170.979s170.979-76.55 170.979-170.979v-86.245c0-94.429-76.55-170.979-170.979-170.979s-170.979 76.55-170.979 170.979v86.245zM658.469 522.203c-64.34 0-116.503-52.158-116.503-116.503v-86.245c0-64.344 52.163-116.503 116.503-116.503 64.344 0 116.503 52.158 116.503 116.503v86.245c0 64.344-52.158 116.503-116.503 116.503z" />
<glyph unicode="&#xe910;" glyph-name="Servicios" d="M190.42 848.843c0 33.987 27.552 61.538 61.538 61.538h518.736c33.987 0 61.539-27.551 61.539-61.538v-748.158c0-52.176-60.854-80.675-100.934-47.274l-36.154 30.128c-11.453 9.542-27.904 10.157-40.035 1.491l-105.798-75.568c-22.774-16.269-53.661-15.117-75.162 2.8l-85.533 71.277c-11.453 9.542-27.904 10.157-40.035 1.491l-60.856-43.469c-40.73-29.094-97.307 0.022-97.307 50.077v757.204zM251.958 881.62c-18.103 0-32.778-14.675-32.778-32.778v-757.204c0-26.662 30.135-42.17 51.829-26.672l60.856 43.469c22.778 16.269 53.661 15.117 75.165-2.803l85.53-71.274c11.453-9.546 27.904-10.157 40.035-1.494l105.798 75.571c22.774 16.269 53.661 15.117 75.162-2.803l36.157-30.128c21.347-17.792 53.76-2.608 53.76 25.181v748.158c0 18.103-14.675 32.778-32.778 32.778h-518.736zM331.872 280.314c0 7.942 6.438 14.381 14.381 14.381h141.475c7.942 0 14.381-6.438 14.381-14.381 0-7.939-6.438-14.378-14.381-14.378h-141.475c-7.942 0-14.381 6.438-14.381 14.378zM614.886 280.314c0 7.942 6.438 14.381 14.381 14.381h47.158c7.942 0 14.381-6.438 14.381-14.381 0-7.939-6.438-14.378-14.381-14.378h-47.158c-7.942 0-14.381 6.438-14.381 14.378zM389.552 641.366c0 66.097 53.584 119.679 119.68 119.679s119.68-53.582 119.68-119.679v-63.18c0-66.096-53.584-119.677-119.68-119.677s-119.68 53.581-119.68 119.677v63.18zM509.232 732.284c-50.214 0-90.918-40.706-90.918-90.919v-63.18c0-50.211 40.704-90.918 90.918-90.918 50.211 0 90.918 40.707 90.918 90.918v63.18c0 50.213-40.707 90.919-90.918 90.919zM541.19 546.24c5.616 5.616 14.72 5.616 20.336 0l63.181-63.178c5.616-5.616 5.616-14.72 0-20.336s-14.723-5.616-20.336 0l-63.181 63.178c-5.616 5.616-5.616 14.72 0 20.336z" />
<glyph unicode="&#xe911;" glyph-name="calendar-check" d="M345.594 902.406c17.673 0 32-14.327 32-32v-70.4h268.8v70.4c0 17.673 14.33 32 32 32s32-14.327 32-32v-70.4h121.6c74.227 0 134.4-60.173 134.4-134.4v-153.6c0-17.673-14.33-32-32-32h-812.8v-352c0-38.88 31.519-70.4 70.4-70.4h256c17.673 0 32-14.33 32-32s-14.327-32-32-32h-256c-74.227 0-134.4 60.173-134.4 134.4v537.6c0 74.227 60.173 134.4 134.4 134.4h121.6v70.4c0 17.673 14.327 32 32 32zM313.594 736.006h-121.6c-38.881 0-70.4-31.519-70.4-70.4v-121.6h780.8v121.6c0 38.881-31.52 70.4-70.4 70.4h-121.6v-44.8c0-17.673-14.33-32-32-32s-32 14.327-32 32v44.8h-268.8v-44.8c0-17.673-14.327-32-32-32s-32 14.327-32 32v44.8zM1007.565 279.27c12.851-12.134 13.427-32.39 1.293-45.235l-217.6-230.4c-6.138-6.496-14.714-10.131-23.648-10.029-8.934 0.109-17.421 3.949-23.398 10.592l-115.203 128c-11.823 13.139-10.758 33.37 2.378 45.19 13.138 11.827 33.368 10.758 45.189-2.374l91.987-102.202 193.766 205.165c12.134 12.851 32.39 13.427 45.235 1.293z" />
<glyph unicode="&#xe912;" glyph-name="calendar-close" d="M345.601 902.406c17.674 0 32-14.327 32-32v-70.4h268.799v70.4c0 17.673 14.33 32 32 32 17.677 0 32-14.327 32-32v-70.4h121.6c74.227 0 134.4-60.173 134.4-134.4v-153.6c0-17.673-14.323-32-32-32h-812.799v-352c0-38.88 31.519-70.4 70.4-70.4h256c17.674 0 32-14.33 32-32s-14.326-32-32-32h-256c-74.227 0-134.4 60.173-134.4 134.4v537.6c0 74.227 60.173 134.4 134.4 134.4h121.6v70.4c0 17.673 14.327 32 32 32zM313.601 736.006h-121.6c-38.881 0-70.4-31.519-70.4-70.4v-121.6h780.799v121.6c0 38.881-31.52 70.4-70.4 70.4h-121.6v-44.8c0-17.673-14.323-32-32-32-17.67 0-32 14.327-32 32v44.8h-268.799v-44.8c0-17.673-14.326-32-32-32s-32 14.327-32 32v44.8zM681.376 278.637c12.493 12.493 32.755 12.493 45.254 0l92.57-92.576 92.576 92.576c12.493 12.493 32.755 12.493 45.254 0 12.493-12.499 12.493-32.762 0-45.261l-92.576-92.57 92.576-92.57c12.493-12.499 12.493-32.762 0-45.261-12.499-12.493-32.762-12.493-45.254 0l-92.576 92.576-92.57-92.576c-12.499-12.493-32.762-12.493-45.254 0-12.499 12.499-12.499 32.762 0 45.261l92.57 92.57-92.57 92.57c-12.499 12.499-12.499 32.762 0 45.261z" />
<glyph unicode="&#xe913;" glyph-name="calendar-edit" d="M345.594 902.406c17.673 0 32-14.327 32-32v-70.4h268.8v70.4c0 17.673 14.33 32 32 32s32-14.327 32-32v-70.4h121.6c74.227 0 134.4-60.173 134.4-134.4v-153.6c0-17.673-14.33-32-32-32h-812.8v-352c0-38.88 31.519-70.4 70.4-70.4h256c17.673 0 32-14.33 32-32s-14.327-32-32-32h-256c-74.227 0-134.4 60.173-134.4 134.4v537.6c0 74.227 60.173 134.4 134.4 134.4h121.6v70.4c0 17.673 14.327 32 32 32zM313.594 736.006h-121.6c-38.881 0-70.4-31.519-70.4-70.4v-121.6h780.8v121.6c0 38.881-31.52 70.4-70.4 70.4h-121.6v-44.8c0-17.673-14.33-32-32-32s-32 14.327-32 32v44.8h-268.8v-44.8c0-17.673-14.327-32-32-32s-32 14.327-32 32v44.8zM940.762 262.374c-17.101 17.107-44.838 17.107-61.939 0l-194.029-194.022v-61.946h61.946l194.022 194.029c17.107 17.101 17.107 44.838 0 61.939zM833.568 307.629c42.099 42.102 110.355 42.102 152.454 0 42.099-42.099 42.099-110.355 0-152.448l-203.405-203.405c-5.997-5.997-14.138-9.37-22.624-9.37h-107.2c-17.673 0-32 14.33-32 32v107.2c0 8.486 3.372 16.627 9.373 22.624l203.402 203.398z" />
<glyph unicode="&#xe914;" glyph-name="calendar-minus" d="M345.594 902.406c17.673 0 32-14.327 32-32v-70.4h268.8v70.4c0 17.673 14.33 32 32 32s32-14.327 32-32v-70.4h121.6c74.227 0 134.4-60.173 134.4-134.4v-153.6c0-17.673-14.33-32-32-32h-812.8v-352c0-38.88 31.519-70.4 70.4-70.4h256c17.673 0 32-14.33 32-32s-14.327-32-32-32h-256c-74.227 0-134.4 60.173-134.4 134.4v537.6c0 74.227 60.173 134.4 134.4 134.4h121.6v70.4c0 17.673 14.327 32 32 32zM313.594 736.006h-121.6c-38.881 0-70.4-31.519-70.4-70.4v-121.6h780.8v121.6c0 38.881-31.52 70.4-70.4 70.4h-121.6v-44.8c0-17.673-14.33-32-32-32s-32 14.327-32 32v44.8h-268.8v-44.8c0-17.673-14.327-32-32-32s-32 14.327-32 32v44.8zM620.794 153.606c0 17.67 14.327 32 32 32h332.8c17.67 0 32-14.33 32-32s-14.33-32-32-32h-332.8c-17.673 0-32 14.33-32 32z" />
<glyph unicode="&#xe915;" glyph-name="calendar" d="M345.601 902.406c17.674 0 32-14.327 32-32v-70.4h268.799v70.4c0 17.673 14.33 32 32 32 17.677 0 32-14.327 32-32v-70.4h121.6c74.227 0 134.4-60.173 134.4-134.4v-537.6c0-74.227-60.173-134.4-134.4-134.4h-639.999c-74.227 0-134.4 60.173-134.4 134.4v537.6c0 74.227 60.173 134.4 134.4 134.4h121.6v70.4c0 17.673 14.327 32 32 32zM313.601 736.006h-121.6c-38.881 0-70.4-31.519-70.4-70.4v-121.6h780.799v121.6c0 38.881-31.52 70.4-70.4 70.4h-121.6v-44.8c0-17.673-14.323-32-32-32-17.67 0-32 14.327-32 32v44.8h-268.799v-44.8c0-17.673-14.326-32-32-32s-32 14.327-32 32v44.8zM902.4 480.006h-780.799v-352c0-38.88 31.519-70.4 70.4-70.4h639.999c38.88 0 70.4 31.52 70.4 70.4v352z" />
<glyph unicode="&#xe916;" glyph-name="user-edit" d="M512 838.406c-74.227 0-134.4-60.173-134.4-134.4s60.173-134.4 134.4-134.4c74.227 0 134.4 60.173 134.4 134.4s-60.173 134.4-134.4 134.4zM313.6 704.006c0 109.573 88.827 198.4 198.4 198.4s198.4-88.827 198.4-198.4c0-109.574-88.827-198.4-198.4-198.4s-198.4 88.826-198.4 198.4zM160 108.806c0 155.526 126.077 281.6 281.6 281.6h108.8c17.673 0 32-14.327 32-32s-14.327-32-32-32h-108.8c-120.177 0-217.6-97.421-217.6-217.6 0-28.275 22.923-51.2 51.2-51.2h172.8c17.673 0 32-14.33 32-32s-14.327-32-32-32h-172.8c-63.623 0-115.2 51.578-115.2 115.2zM940.768 262.374c-17.101 17.107-44.838 17.107-61.939 0l-194.029-194.022v-61.946h61.946l194.022 194.029c17.107 17.101 17.107 44.838 0 61.939zM833.574 307.629c42.099 42.102 110.355 42.102 152.454 0 42.093-42.099 42.093-110.355 0-152.448l-203.405-203.405c-5.997-5.997-14.138-9.37-22.624-9.37h-107.2c-17.673 0-32 14.33-32 32v107.2c0 8.486 3.372 16.627 9.373 22.624l203.402 203.398z" />
<glyph unicode="&#xe917;" glyph-name="user-minus" d="M512 838.406c-74.227 0-134.4-60.173-134.4-134.4s60.173-134.4 134.4-134.4c74.227 0 134.4 60.173 134.4 134.4s-60.173 134.4-134.4 134.4zM313.6 704.006c0 109.573 88.827 198.4 198.4 198.4s198.4-88.827 198.4-198.4c0-109.574-88.827-198.4-198.4-198.4s-198.4 88.826-198.4 198.4zM160 108.806c0 155.526 126.077 281.6 281.6 281.6h108.8c17.673 0 32-14.327 32-32s-14.327-32-32-32h-108.8c-120.177 0-217.6-97.421-217.6-217.6 0-28.275 22.923-51.2 51.2-51.2h172.8c17.673 0 32-14.33 32-32s-14.327-32-32-32h-172.8c-63.623 0-115.2 51.578-115.2 115.2zM620.8 153.606c0 17.67 14.327 32 32 32h332.8c17.67 0 32-14.33 32-32s-14.33-32-32-32h-332.8c-17.673 0-32 14.33-32 32z" />
<glyph unicode="&#xe918;" glyph-name="user-plus" d="M512 838.406c-74.227 0-134.4-60.173-134.4-134.4s60.173-134.4 134.4-134.4c74.227 0 134.4 60.173 134.4 134.4s-60.173 134.4-134.4 134.4zM313.6 704.006c0 109.573 88.827 198.4 198.4 198.4s198.4-88.827 198.4-198.4c0-109.574-88.827-198.4-198.4-198.4s-198.4 88.826-198.4 198.4zM160 108.806c0 155.526 126.077 281.6 281.6 281.6h108.8c17.673 0 32-14.327 32-32s-14.327-32-32-32h-108.8c-120.177 0-217.6-97.421-217.6-217.6 0-28.275 22.923-51.2 51.2-51.2h172.8c17.673 0 32-14.33 32-32s-14.327-32-32-32h-172.8c-63.623 0-115.2 51.578-115.2 115.2zM819.2 339.206c17.67 0 32-14.327 32-32v-134.406h134.4c17.67 0 32-14.33 32-32s-14.33-32-32-32h-134.4v-134.394c0-17.67-14.33-32-32-32s-32 14.33-32 32v134.394h-134.4c-17.673 0-32 14.33-32 32s14.327 32 32 32h134.4v134.406c0 17.673 14.33 32 32 32z" />
<glyph unicode="&#xe919;" glyph-name="download" d="M512.001 902.406c17.674 0 32-14.327 32-32v-464.513l112.696 104.026c12.986 11.987 33.229 11.178 45.216-1.809s11.181-33.231-1.805-45.219l-166.403-153.6c-12.258-11.315-31.151-11.315-43.41 0l-166.4 153.6c-12.986 11.987-13.796 32.232-1.809 45.219s32.232 13.796 45.219 1.809l112.695-104.026v464.513c0 17.673 14.327 32 32 32zM89.601 288.006c17.674 0 32-14.33 32-32v-128c0-38.88 31.519-70.4 70.4-70.4h639.999c38.88 0 70.4 31.52 70.4 70.4v128c0 17.67 14.33 32 32 32 17.677 0 32-14.33 32-32v-128c0-74.227-60.173-134.4-134.4-134.4h-639.999c-74.227 0-134.4 60.173-134.4 134.4v128c0 17.67 14.327 32 32 32z" />
<glyph unicode="&#xe91a;" glyph-name="file-plus" d="M294.4 838.406h249.6v-224c0-17.673 14.327-32 32-32h224v-96c0-17.673 14.33-32 32-32s32 14.327 32 32v128c0 8.487-3.373 16.626-9.37 22.627l-256.003 256c-6.001 6.001-14.14 9.373-22.627 9.373h-281.6c-74.227 0-134.4-60.173-134.4-134.4v-640c0-74.227 60.173-134.4 134.4-134.4h179.2c17.673 0 32 14.33 32 32s-14.327 32-32 32h-179.2c-38.881 0-70.4 31.52-70.4 70.4v640c0 38.881 31.519 70.4 70.4 70.4zM608 793.151l146.746-146.745h-146.746v146.745zM819.2 339.206c17.67 0 32-14.327 32-32v-134.406h134.4c17.67 0 32-14.33 32-32s-14.33-32-32-32h-134.4v-134.394c0-17.67-14.33-32-32-32s-32 14.33-32 32v134.394h-134.4c-17.673 0-32 14.33-32 32s14.327 32 32 32h134.4v134.406c0 17.673 14.33 32 32 32z" />
<glyph unicode="&#xe91b;" glyph-name="fingerprint" d="M483.804 862.726c-106.36-6.73-201.935-39.099-258.37-75.012-14.91-9.488-34.689-5.093-44.177 9.817s-5.093 34.689 9.817 44.177c67.004 42.639 173.42 77.596 288.689 84.89 115.6 7.315 243.783-12.978 352.212-85.26 14.707-9.803 18.682-29.67 8.877-44.376-9.798-14.705-29.67-18.68-44.371-8.877-93.562 62.367-206.646 81.35-312.676 74.641zM511.247 749.031c-227.966 0-369.048-148.105-409.864-219.532-8.769-15.345-28.316-20.676-43.66-11.908s-20.676 28.316-11.907 43.66c48.958 85.677 208.618 251.78 465.431 251.78 256.811 0 416.472-166.103 465.432-251.78 8.768-15.344 3.437-34.892-11.91-43.66-15.341-8.768-34.893-3.437-43.661 11.908-40.813 71.427-181.894 219.532-409.86 219.532zM787.597 493.942c-131.238 196.848-410.268 186.842-568.239-2.733-41.978-50.377-55.274-125.020-52.339-195.119 1.443-34.464 6.767-66.214 13.506-90.854 3.372-12.333 6.975-22.426 10.376-29.958 1.695-3.75 3.219-6.598 4.481-8.634 1.191-1.92 1.858-2.65 1.855-2.656-0.001 0-0.009 0.013-0.026 0.026 12.497-12.493 12.497-32.755 0.001-45.254-12.497-12.493-32.758-12.493-45.255 0-8.267 8.269-14.556 19.494-19.381 30.176-5.108 11.309-9.761 24.71-13.784 39.418-8.052 29.446-14.079 65.965-15.716 105.062-3.226 77.030 10.406 170.708 67.116 238.764 178.662 214.406 510.187 237.958 670.654-2.735 69.792-104.682 87.328-193.352 62.509-259.581-25.389-67.744-90.285-99.891-156.461-99.891-33.536 0-60.954 8.102-82.79 24.038-21.517 15.693-34.624 36.826-43.601 57.504-8.062 18.573-13.629 38.912-18.476 56.614-0.431 1.574-0.857 3.13-1.278 4.659-5.468 19.875-10.32 36.299-17.133 49.923-18.4 36.793-63.74 51.253-105.278 37.311-19.952-6.696-37.059-19.613-47.745-38.009-10.545-18.152-16.285-44.143-9.172-79.708 15.953-79.763 44.014-134.15 81.517-172.384 37.558-38.291 87.13-62.989 150.715-78.886 17.146-4.282 27.565-21.658 23.283-38.803-4.288-17.146-21.664-27.571-38.807-23.283-71.078 17.773-132.597 46.931-180.881 96.16-48.339 49.28-80.871 116.083-98.584 204.646-9.72 48.595-2.888 90.879 16.589 124.407 19.336 33.284 49.702 55.452 82.721 66.534 64.403 21.615 146.992 2.41 182.885-69.36 10.016-20.031 16.301-42.316 21.6-61.572 0.346-1.264 0.691-2.516 1.030-3.756 5.152-18.775 9.562-34.82 15.718-49.009 6.368-14.669 13.555-24.678 22.618-31.29 8.73-6.368 22.163-11.738 45.069-11.738 46.707 0 82.803 21.728 96.531 58.349 14.285 38.134 9.043 104.324-55.827 201.622zM406.457 485.009c-66.915-37.225-112.324-103.355-112.324-175.293 0-155.936 73.926-236.403 133.864-276.358 14.705-9.805 18.678-29.67 8.876-44.378-9.804-14.701-29.672-18.675-44.376-8.877-74.723 49.818-162.363 148.89-162.363 329.613 0 99.725 62.317 185.108 145.21 231.222 83.378 46.383 191.65 55.462 287.037-1.791 101.094-60.676 129.997-164.021 129.997-229.424 0-17.67-14.33-32-32-32s-32 14.33-32 32c0 50.079-22.541 128.7-98.93 174.549-72.941 43.78-156.56 37.693-222.991 0.738zM511.227 341.719c17.673 0 32-14.327 32-31.997 0-43.962 14.685-93.6 53.107-129.926 37.889-35.821 103.667-63.206 215.148-53.651 17.606 1.51 33.107-11.539 34.618-29.152 1.504-17.606-11.546-33.107-29.152-34.611-124.179-10.643-209.893 19.2-264.583 70.906-54.158 51.206-73.137 119.398-73.137 176.435 0 17.67 14.326 31.997 32 31.997z" />
<glyph unicode="&#xe91c;" glyph-name="login" d="M108.797 447.994c0 17.673 14.327 32 32 32h362.113l-104.026 112.695c-11.987 12.986-11.178 33.231 1.809 45.219s33.231 11.178 45.219-1.809l153.6-166.4c11.315-12.258 11.315-31.152 0-43.41l-153.6-166.397c-11.987-12.986-32.232-13.798-45.219-1.811s-13.796 32.23-1.809 45.216l104.026 112.698h-362.113c-17.673 0-32 14.327-32 32zM518.397 25.594c0 17.67 14.327 32 32 32h230.403c38.88 0 70.4 31.52 70.4 70.4v640c0 38.881-31.52 70.4-70.4 70.4h-230.403c-17.673 0-32 14.327-32 32s14.327 32 32 32h230.403c74.221 0 134.4-60.173 134.4-134.4v-640c0-74.227-60.179-134.4-134.4-134.4h-230.403c-17.673 0-32 14.33-32 32z" />
<glyph unicode="&#xe91d;" glyph-name="logout" d="M906.72 426.289c11.309 12.258 11.309 31.152 0 43.41l-153.6 166.4c-11.994 12.986-32.237 13.796-45.222 1.809s-13.798-32.232-1.811-45.219l104.032-112.695h-362.115c-17.673 0-32-14.327-32-32s14.327-32 32-32h362.115l-104.032-112.698c-11.987-12.986-11.174-33.229 1.811-45.216s33.229-11.174 45.222 1.811l153.6 166.397zM505.603 25.594c0 17.67-14.327 32-32 32h-230.4c-38.881 0-70.4 31.52-70.4 70.4v640c0 38.881 31.519 70.4 70.4 70.4h230.4c17.673 0 32 14.327 32 32s-14.327 32-32 32h-230.4c-74.227 0-134.4-60.173-134.4-134.4v-640c0-74.227 60.173-134.4 134.4-134.4h230.4c17.673 0 32 14.33 32 32z" />
<glyph unicode="&#xe91e;" glyph-name="minus" d="M96 447.985c0 17.673 14.327 32 32 32h768c17.67 0 32-14.327 32-32s-14.33-32-32-32h-768c-17.673 0-32 14.326-32 32z" />
<glyph unicode="&#xe91f;" glyph-name="plus" d="M512 864c17.673 0 32-14.327 32-32v-352.009h352c17.67 0 32-14.327 32-32s-14.33-32-32-32h-352v-351.991c0-17.67-14.327-32-32-32s-32 14.33-32 32v351.991h-352c-17.673 0-32 14.327-32 32s14.327 32 32 32h352v352.009c0 17.673 14.327 32 32 32z" />
<glyph unicode="&#xe920;" glyph-name="upload" d="M490.296 893.92c12.259 11.315 31.152 11.315 43.41 0l166.403-153.6c12.986-11.987 13.792-32.232 1.805-45.219s-32.23-13.796-45.216-1.809l-112.696 104.026v-464.513c0-17.67-14.326-32-32-32s-32 14.33-32 32v464.512l-112.695-104.026c-12.986-11.988-33.231-11.178-45.219 1.809s-11.178 33.231 1.809 45.219l166.4 153.6zM89.601 288.006c17.674 0 32-14.33 32-32v-128c0-38.88 31.519-70.4 70.4-70.4h639.999c38.88 0 70.4 31.52 70.4 70.4v128c0 17.67 14.33 32 32 32 17.677 0 32-14.33 32-32v-128c0-74.227-60.173-134.4-134.4-134.4h-639.999c-74.227 0-134.4 60.173-134.4 134.4v128c0 17.67 14.327 32 32 32z" />
<glyph unicode="&#xe921;" glyph-name="message" d="M96 675.444c0 68.79 55.766 124.556 124.556 124.556h578.471c68.794 0 124.557-55.766 124.557-124.556v-347.084c0-68.788-55.763-124.558-124.557-124.558h-260.545c-3.408 0-6.704-1.216-9.292-3.437l-148.975-127.693c-9.489-8.134-22.843-9.997-34.196-4.774s-18.629 16.576-18.629 29.075v92.55c0 7.885-6.392 14.278-14.278 14.278h-92.556c-68.79 0-124.556 55.77-124.556 124.558v347.084zM220.556 736c-33.444 0-60.556-27.112-60.556-60.556v-347.084c0-33.441 27.112-60.558 60.556-60.558h92.556c43.232 0 78.278-35.046 78.278-78.278v-22.976l96.15 82.413c14.188 12.16 32.257 18.842 50.943 18.842h260.545c33.446 0 60.557 27.117 60.557 60.558v347.084c0 33.444-27.11 60.556-60.557 60.556h-578.471z" />
<glyph unicode="&#xe922;" glyph-name="open-in-new" d="M696.243 736c-17.67 0-32 14.327-32 32s14.33 32 32 32h135.757c17.677 0 32-14.327 32-32v-135.758c0-17.673-14.323-32-32-32-17.67 0-32 14.327-32 32v58.503l-226.583-226.586c-12.497-12.497-32.758-12.497-45.255 0s-12.497 32.758 0 45.254l226.584 226.586h-58.502zM160 651.636c0 60.517 49.059 109.576 109.576 109.576h203.637c17.673 0 32-14.327 32-32s-14.327-32-32-32h-203.637c-25.171 0-45.576-20.405-45.576-45.576v-446.061c0-25.171 20.405-45.574 45.576-45.574h446.065c25.171 0 45.574 20.403 45.574 45.574v203.636c0 17.673 14.323 32 32 32 17.67 0 32-14.327 32-32v-203.636c0-60.518-49.062-109.574-109.574-109.574h-446.065c-60.517 0-109.576 49.056-109.576 109.574v446.061z" />
<glyph unicode="&#xe923;" glyph-name="refresh" d="M549.788 890.396c11.041-13.8 8.803-33.938-4.998-44.979l-56.765-45.412h23.975c47.669 0 93.201-9.493 134.752-26.723 43.046-17.85 81.754-43.978 114.15-76.377 32.397-32.397 58.522-71.103 76.371-114.148 17.235-41.549 26.726-87.082 26.726-134.752s-9.491-93.203-26.72-134.751c-6.771-16.326-25.498-24.070-41.818-17.299-16.326 6.765-24.077 25.489-17.306 41.814 14.067 33.914 21.843 71.126 21.843 110.236s-7.776 76.323-21.843 110.236c-14.586 35.174-35.962 66.86-62.509 93.41-26.554 26.551-58.24 47.926-93.414 62.513-33.912 14.063-71.124 21.841-110.234 21.841h-23.975l56.765-45.412c13.8-11.040 16.038-31.178 4.998-44.978s-31.178-16.038-44.978-4.998l-128 102.4c-7.591 6.073-12.010 15.267-12.010 24.988s4.419 18.915 12.010 24.988l128 102.4c13.8 11.041 33.938 8.803 44.978-4.997zM228.538 600.053c16.325-6.77 24.072-25.492 17.302-41.817-14.062-33.912-21.839-71.123-21.839-110.231s7.777-76.318 21.839-110.23c14.586-35.176 35.962-66.863 62.515-93.416 26.551-26.554 58.239-47.93 93.414-62.515 33.912-14.061 71.124-21.837 110.232-21.837h23.975l-56.765 45.408c-13.8 11.040-16.038 31.181-4.998 44.979 11.041 13.805 31.178 16.038 44.978 4.998l127.997-102.4c7.597-6.074 12.013-15.264 12.013-24.986s-4.416-18.918-12.013-24.992l-127.997-102.4c-13.8-11.040-33.937-8.8-44.978 4.998-11.040 13.805-8.803 33.939 4.998 44.979l56.765 45.414h-23.975c-47.668 0-93.2 9.491-134.748 26.72-43.047 17.85-81.755 43.981-114.153 76.378-32.4 32.397-58.528 71.11-76.379 114.157-17.228 41.546-26.721 87.077-26.721 134.744s9.492 93.199 26.721 134.746c6.77 16.325 25.492 24.072 41.817 17.302z" />
<glyph unicode="&#xe924;" glyph-name="repeat" d="M500.74 916.825c11.501-13.418 9.948-33.62-3.471-45.122l-115.331-98.855h159.152c210.468 0 381.092-170.62 381.092-381.091s-170.624-381.089-381.092-381.089c-210.47 0-381.091 170.618-381.091 381.089 0 29.061 3.259 57.4 9.444 84.657 3.91 17.235 21.053 28.036 38.287 24.125s28.036-21.053 24.126-38.288c-5.138-22.641-7.857-46.23-7.857-70.494 0-175.124 141.966-317.089 317.091-317.089 175.127 0 317.092 141.965 317.092 317.089s-141.965 317.091-317.092 317.091h-159.152l115.331-98.855c13.418-11.501 14.972-31.703 3.471-45.122s-31.703-14.972-45.121-3.471l-181.010 155.151c-7.093 6.079-11.175 14.955-11.175 24.296s4.082 18.217 11.175 24.296l181.010 155.151c13.418 11.502 33.62 9.948 45.121-3.471z" />
<glyph unicode="&#xe925;" glyph-name="search" d="M442.182 800c-155.844 0-282.182-126.337-282.182-282.182s126.337-282.183 282.182-282.183c155.844 0 282.183 126.339 282.183 282.183s-126.339 282.182-282.183 282.182zM96 517.818c0 191.191 154.991 346.182 346.182 346.182s346.183-154.991 346.183-346.182c0-84.073-29.971-161.146-79.808-221.121l210.074-210.067c12.493-12.499 12.493-32.762 0-45.261-12.499-12.493-32.762-12.493-45.261 0l-210.067 210.074c-59.974-49.837-137.048-79.808-221.121-79.808-191.191 0-346.182 154.992-346.182 346.183z" />
<glyph unicode="&#xe926;" glyph-name="settings" d="M386.909 762.182c0 56.233 45.586 101.818 101.818 101.818h46.546c56.232 0 101.818-45.585 101.818-101.818v-12.184l8.618 8.616c39.763 39.763 104.23 39.763 143.994 0l32.909-32.912c39.763-39.763 39.763-104.23 0-143.993l-8.614-8.618h12.186c56.23 0 101.818-45.586 101.818-101.818v-46.546c0-56.232-45.587-101.818-101.818-101.818h-12.186l8.614-8.618c39.763-39.763 39.763-104.23 0-143.994l-32.909-32.909c-39.763-39.763-104.23-39.763-143.994 0l-8.618 8.614v-12.186c0-56.23-45.586-101.818-101.818-101.818h-46.546c-56.232 0-101.818 45.587-101.818 101.818v12.186l-8.616-8.614c-39.763-39.763-104.23-39.763-143.993 0l-32.912 32.915c-39.763 39.763-39.763 104.23 0 143.994l8.614 8.611h-12.184c-56.233 0-101.818 45.586-101.818 101.818v46.546c0 56.232 45.585 101.818 101.818 101.818h12.185l-8.616 8.616c-39.763 39.762-39.763 104.23 0 143.992l32.913 32.913c39.763 39.763 104.23 39.763 143.992 0l8.616-8.616v12.186zM488.727 800c-20.886 0-37.818-16.932-37.818-37.818v-33.256c0-49.243-59.536-73.904-94.356-39.084l-23.515 23.514c-14.769 14.769-38.714 14.769-53.483 0l-32.913-32.912c-14.769-14.769-14.769-38.714 0-53.484l23.514-23.514c34.82-34.819 10.159-94.356-39.084-94.356h-33.254c-20.886 0-37.818-16.932-37.818-37.818v-46.546c0-20.886 16.932-37.818 37.818-37.818h33.253c49.243 0 73.903-59.536 39.084-94.358l-23.513-23.514c-14.769-14.765-14.769-38.714 0-53.478l32.913-32.915c14.769-14.771 38.714-14.771 53.483 0l23.515 23.514c34.82 34.822 94.356 10.163 94.356-39.078v-33.261c0-20.883 16.932-37.818 37.818-37.818h46.546c20.886 0 37.818 16.934 37.818 37.818v33.254c0 49.242 59.537 73.907 94.358 39.085l23.514-23.514c14.771-14.771 38.714-14.771 53.485 0l32.909 32.909c14.771 14.771 14.771 38.714 0 53.485l-23.514 23.514c-34.822 34.822-10.157 94.358 39.085 94.358h33.254c20.883 0 37.818 16.932 37.818 37.818v46.546c0 20.886-16.934 37.818-37.818 37.818h-33.261c-49.242 0-73.901 59.537-39.078 94.356l23.514 23.517c14.771 14.769 14.771 38.714 0 53.483l-32.909 32.913c-14.771 14.769-38.72 14.769-53.485 0l-23.514-23.515c-34.822-34.82-94.358-10.159-94.358 39.084v33.253c0 20.886-16.932 37.818-37.818 37.818h-46.546zM512 544c-53.020 0-96-42.98-96-96s42.98-96 96-96c53.020 0 96 42.98 96 96s-42.98 96-96 96zM352 448c0 88.365 71.635 160 160 160s160-71.635 160-160c0-88.365-71.635-160-160-160s-160 71.635-160 160z" />
<glyph unicode="&#xe927;" glyph-name="share" d="M819.194 838.406c-45.952 0-83.2-37.25-83.2-83.2s37.248-83.2 83.2-83.2c45.952 0 83.2 37.25 83.2 83.2s-37.248 83.2-83.2 83.2zM671.994 755.206c0 81.296 65.901 147.2 147.2 147.2s147.2-65.904 147.2-147.2c0-81.297-65.901-147.2-147.2-147.2-46.080 0-87.213 21.172-114.202 54.321l-357.345-178.671c2.84-11.414 4.346-23.356 4.346-35.649s-1.507-24.235-4.346-35.65l357.345-178.673c26.989 33.152 68.122 54.323 114.202 54.323 81.299 0 147.2-65.901 147.2-147.2s-65.901-147.2-147.2-147.2c-81.299 0-147.2 65.901-147.2 147.2 0 12.294 1.504 24.237 4.346 35.648l-357.341 178.673c-26.991-33.148-68.125-54.321-114.205-54.321-81.296 0-147.2 65.903-147.2 147.2s65.904 147.2 147.2 147.2c46.079 0 87.213-21.173 114.205-54.321l357.341 178.671c-2.842 11.415-4.346 23.356-4.346 35.65zM204.794 531.206c-45.95 0-83.2-37.25-83.2-83.2s37.25-83.2 83.2-83.2c45.95 0 83.2 37.25 83.2 83.2s-37.25 83.2-83.2 83.2zM819.194 224.006c-45.952 0-83.2-37.248-83.2-83.2s37.248-83.2 83.2-83.2c45.952 0 83.2 37.248 83.2 83.2s-37.248 83.2-83.2 83.2z" />
<glyph unicode="&#xe928;" glyph-name="slider" d="M832 838.406c-38.88 0-70.4-31.519-70.4-70.4s31.52-70.4 70.4-70.4c38.88 0 70.4 31.519 70.4 70.4s-31.52 70.4-70.4 70.4zM701.434 800.006c14.355 58.778 67.366 102.4 130.566 102.4 74.227 0 134.4-60.173 134.4-134.4s-60.173-134.4-134.4-134.4c-63.2 0-116.211 43.622-130.566 102.4h-611.832c-17.673 0-32 14.327-32 32s14.327 32 32 32h611.832zM307.201 518.406c-38.881 0-70.4-31.519-70.4-70.4s31.519-70.4 70.4-70.4c38.881 0 70.4 31.519 70.4 70.4s-31.519 70.4-70.4 70.4zM176.634 480.006c14.356 58.778 67.368 102.4 130.567 102.4s116.211-43.622 130.568-102.4h496.631c17.677 0 32-14.327 32-32s-14.323-32-32-32h-496.631c-14.356-58.778-67.368-102.4-130.568-102.4s-116.211 43.622-130.567 102.4h-87.033c-17.673 0-32 14.327-32 32s14.327 32 32 32h87.033zM601.601 198.406c-38.881 0-70.4-31.52-70.4-70.4s31.519-70.4 70.4-70.4c38.879 0 70.399 31.52 70.399 70.4s-31.52 70.4-70.399 70.4zM471.034 160.006c14.356 58.778 67.368 102.4 130.567 102.4s116.21-43.622 130.565-102.4h202.234c17.677 0 32-14.33 32-32s-14.323-32-32-32h-202.234c-14.355-58.778-67.366-102.4-130.565-102.4s-116.211 43.622-130.567 102.4h-381.433c-17.673 0-32 14.33-32 32s14.327 32 32 32h381.433z" />
<glyph unicode="&#xe929;" glyph-name="attachment" d="M591.748 847.488c73.993 73.214 193.82 73.214 267.817 0 74.182-73.4 74.182-192.547 0-265.947l-417.754-413.349c-43.231-42.778-113.184-42.778-156.415 0-43.42 42.963-43.42 112.755 0 155.72l362.054 358.237c12.563 12.43 32.826 12.323 45.254-0.24s12.32-32.824-0.243-45.254l-362.051-358.235c-18.106-17.914-18.106-46.822 0-64.736 18.294-18.099 48.093-18.099 66.387 0l417.751 413.352c48.87 48.353 48.87 126.607 0 174.959-49.056 48.539-128.73 48.539-177.785 0l-404.239-399.977c-3.997-3.956-5.626-5.569-7.131-7.132-32.714-33.949-51.412-78.681-52.538-125.439-0.052-2.15-0.054-4.422-0.054-10.022 0-12.787 0.010-18.048 0.216-22.33 4.662-96.749 82.973-174.637 181.484-179.283 4.359-0.205 9.704-0.211 22.618-0.211 5.651 0 7.962 0 10.151 0.051 47.547 1.12 92.906 19.738 127.235 52.122 1.58 1.491 3.21 3.104 7.208 7.059l292.835 289.75c12.563 12.431 32.826 12.323 45.254-0.24 12.435-12.563 12.326-32.824-0.237-45.254l-293.141-290.048c-3.601-3.565-5.8-5.741-8.001-7.821-45.892-43.29-106.383-68.058-169.646-69.549-3.034-0.070-6.135-0.070-11.23-0.070h-1.478c-11.553 0-18.52 0-24.585 0.282-130.908 6.176-236.117 109.882-242.394 240.128-0.29 6.029-0.29 12.947-0.29 24.352v1.498c0 5.030 0 8.109 0.073 11.123 1.514 62.882 26.659 122.885 70.434 168.312 2.099 2.179 4.298 4.354 7.901 7.919l404.54 400.275z" />
<glyph unicode="&#xe92a;" glyph-name="camera" d="M443.268 864.003c1.169-0.002 2.339-0.004 3.511-0.004h130.446c1.172 0 2.342 0.003 3.511 0.004 14.981 0.029 29.645 0.058 43.188-4.726 11.809-4.172 22.5-10.957 31.326-19.811 10.080-10.108 16.493-23.309 23.187-37.084 0.518-1.060 1.037-2.124 1.555-3.189l20.077-41.124h74.464c27.808 0 50.656 0.001 69.242-1.555 19.29-1.614 36.826-5.068 53.222-13.622 25.542-13.329 46.17-34.52 59.046-60.41 8.224-16.525 11.552-34.2 13.114-53.784 1.51-18.943 1.51-42.259 1.51-70.808v-325.718c0-28.544 0-51.859-1.51-70.803-1.562-19.584-4.89-37.261-13.114-53.786-12.877-25.888-33.504-47.078-59.046-60.41-16.397-8.557-33.933-12.006-53.222-13.619-18.586-1.555-41.434-1.555-69.235-1.555h-525.074c-27.806 0-50.652 0-69.24 1.555-19.288 1.613-36.827 5.062-53.219 13.619-25.542 13.331-46.168 34.522-59.048 60.41-8.222 16.525-11.551 34.202-13.113 53.786-1.511 18.944-1.511 42.259-1.511 70.81v325.711c0 28.549-0.001 51.866 1.511 70.808 1.562 19.584 4.892 37.259 13.113 53.784 12.88 25.89 33.506 47.081 59.048 60.41 16.392 8.554 33.931 12.008 53.219 13.622 18.589 1.555 41.435 1.555 69.241 1.555h74.467l20.077 41.124c0.52 1.066 1.037 2.129 1.553 3.189 6.694 13.775 13.11 26.976 23.188 37.084 8.827 8.854 19.519 15.64 31.327 19.811 13.544 4.784 28.207 4.756 43.188 4.726zM446.78 799.999c-20.931 0-23.594-0.436-25.382-1.068-2.685-0.948-5.195-2.519-7.321-4.652-1.533-1.537-3.229-4.069-12.552-23.166l-28.846-59.085c-5.366-10.99-16.526-17.961-28.756-17.961h-93.091c-29.505 0-49.663-0.026-65.267-1.332-15.208-1.272-23.214-3.592-28.947-6.584-13.382-6.984-24.404-18.203-31.357-32.178-3.052-6.135-5.359-14.621-6.616-30.366-1.284-16.096-1.308-36.851-1.308-67.030v-323.087c0-30.182 0.024-50.938 1.308-67.034 1.256-15.744 3.564-24.23 6.616-30.368 6.953-13.971 17.974-25.19 31.357-32.173 5.733-2.995 13.74-5.312 28.947-6.586 15.604-1.306 35.763-1.331 65.267-1.331h522.34c29.51 0 49.664 0.026 65.267 1.331 15.213 1.274 23.219 3.59 28.954 6.586 13.382 6.982 24.403 18.202 31.354 32.173 3.053 6.138 5.357 14.624 6.618 30.368 1.28 16.096 1.306 36.851 1.306 67.034v323.087c0 30.179-0.026 50.934-1.306 67.030-1.261 15.745-3.565 24.231-6.618 30.366-6.95 13.975-17.971 25.194-31.354 32.178-5.734 2.991-13.741 5.311-28.954 6.584-15.603 1.306-35.757 1.332-65.267 1.332h-93.088c-12.23 0-23.392 6.971-28.755 17.961l-28.847 59.085c-9.324 19.097-11.020 21.629-12.552 23.166-2.126 2.132-4.636 3.703-7.321 4.652-1.789 0.632-4.452 1.068-25.382 1.068h-130.446zM512.003 535.171c-74.44 0-136.081-62.018-136.081-140.138 0-78.118 61.64-140.14 136.081-140.14s136.081 62.022 136.081 140.14c0 78.12-61.64 140.138-136.081 140.138zM311.922 395.033c0 112.019 88.864 204.138 200.081 204.138s200.081-92.12 200.081-204.138c0-112.019-88.864-204.14-200.081-204.14s-200.081 92.122-200.081 204.14z" />
<glyph unicode="&#xe92b;" glyph-name="copy" d="M96 738.909c0 69.086 56.005 125.091 125.091 125.091h395.636c69.084 0 125.091-56.005 125.091-125.091v-61.091h61.094c69.082 0 125.088-56.005 125.088-125.091v-395.639c0-69.082-56.006-125.088-125.088-125.088h-395.639c-69.086 0-125.091 56.006-125.091 125.088v61.094h-61.091c-69.086 0-125.091 56.006-125.091 125.091v395.636zM282.182 282.182v270.545c0 69.086 56.005 125.091 125.091 125.091h270.545v61.091c0 33.74-27.354 61.091-61.091 61.091h-395.636c-33.74 0-61.091-27.351-61.091-61.091v-395.636c0-33.737 27.351-61.091 61.091-61.091h61.091zM407.273 613.818c-33.74 0-61.091-27.352-61.091-61.091v-395.639c0-33.734 27.352-61.088 61.091-61.088h395.639c33.734 0 61.088 27.354 61.088 61.088v395.639c0 33.74-27.354 61.091-61.088 61.091h-395.639z" />
<glyph unicode="&#xe92c;" glyph-name="face-id" d="M90.333 659.749v105.417c0 57.622 46.88 104.5 104.5 104.5h105.417c13.162 0 23.833 10.671 23.833 23.833s-10.671 23.834-23.833 23.834h-105.417c-83.905 0-152.167-68.262-152.167-152.167v-105.417c0-13.162 10.671-23.833 23.834-23.833s23.833 10.671 23.833 23.833zM300.251 26.334c13.162 0 23.833-10.671 23.833-23.834s-10.671-23.834-23.833-23.834h-105.417c-83.905 0-152.167 68.262-152.167 152.166v105.417c0 13.163 10.671 23.834 23.834 23.834s23.833-10.671 23.833-23.834v-105.417c0-57.621 46.88-104.499 104.5-104.499h105.417zM981.333 236.25v-105.417c0-83.904-68.262-152.166-152.166-152.166h-105.417c-13.163 0-23.834 10.671-23.834 23.834s10.671 23.834 23.834 23.834h105.417c57.621 0 104.499 46.878 104.499 104.499v105.417c0 13.163 10.671 23.834 23.834 23.834s23.834-10.671 23.834-23.834zM981.333 765.166v-105.417c0-13.162-10.671-23.833-23.834-23.833s-23.834 10.671-23.834 23.833v105.417c0 57.622-46.878 104.5-104.499 104.5h-105.417c-13.163 0-23.834 10.671-23.834 23.833s10.671 23.834 23.834 23.834h105.417c83.904 0 152.166-68.262 152.166-152.167zM676.476 223.569c10.044 9.276 10.662 24.934 1.387 34.974s-24.93 10.662-34.974 1.387c-35.729-33.003-82.21-51.179-130.889-51.179-48.674 0-95.16 18.176-130.889 51.179-10.043 9.276-25.699 8.653-34.975-1.387s-8.654-25.698 1.387-34.974c44.903-41.476 103.314-64.32 164.477-64.32s119.573 22.844 164.476 64.32zM561.502 563.5v-176.001c0-34.876-28.373-63.249-63.253-63.249h-20.164c-13.67 0-24.751 11.081-24.751 24.751 0 13.666 11.081 24.747 24.751 24.747h20.164c7.582 0 13.751 6.17 13.751 13.751v176.001c0 13.67 11.081 24.75 24.751 24.75s24.751-11.081 24.751-24.75zM732.002 494.289v70.586c0 12.909-10.466 23.375-23.377 23.375-12.907 0-23.373-10.466-23.373-23.375v-70.586c0-12.907 10.466-23.373 23.373-23.373 12.911 0 23.377 10.466 23.377 23.373zM297.5 494.289c0-12.907 10.466-23.373 23.375-23.373s23.375 10.466 23.375 23.373v70.586c0 12.909-10.466 23.375-23.375 23.375s-23.375-10.466-23.375-23.375v-70.586z" />
<glyph unicode="&#xe92d;" glyph-name="edit" d="M664.55 850.611c33.158 33.159 78.131 51.788 125.030 51.788 97.651 0 176.813-79.163 176.813-176.816 0-46.894-18.63-91.868-51.789-125.027l-597.583-597.586c-6.001-5.997-14.141-9.37-22.628-9.37h-204.8c-17.673 0-32 14.323-32 32v204.8c0 8.486 3.371 16.627 9.373 22.624l597.584 597.587zM789.581 838.399c-29.92 0-58.618-11.886-79.776-33.043l-24.557-24.557 159.546-159.546 24.557 24.557c21.158 21.157 33.043 49.852 33.043 79.772 0 62.307-50.509 112.816-112.813 112.816zM799.539 575.999l-159.546 159.545-518.4-518.398v-159.546h159.546l518.4 518.399z" />
<glyph unicode="&#xe92e;" glyph-name="eye-off" d="M102.495 787.322c10.672 14.087 30.744 16.856 44.831 6.184l760.323-576.001c14.086-10.669 16.851-30.739 6.182-44.832-10.675-14.086-30.746-16.851-44.832-6.182l-124.813 94.56c-63.974-54.048-145.292-101.050-236.024-101.050-92.849 0-175.748 49.235-240.050 104.48-64.836 55.699-114.881 121.036-142.563 160.851-0.441 0.635-0.885 1.271-1.332 1.91-6.72 9.626-13.868 19.863-17.364 33.969-2.838 11.447-2.838 26.129 0 37.576 3.497 14.106 10.645 24.344 17.364 33.969 0.446 0.639 0.891 1.276 1.332 1.91 21.15 30.421 55.274 75.62 99.005 120.042l-115.876 87.785c-14.087 10.672-16.856 30.743-6.184 44.83zM276.035 615.706c-43.057-42.726-77.028-87.498-97.937-117.574-4.228-6.082-6.298-9.103-7.705-11.544-1.023-1.777-1.242-2.488-1.415-3.181-0.003-0.018-0.068-0.324-0.132-0.936-0.073-0.692-0.121-1.543-0.121-2.472s0.048-1.78 0.121-2.472c0.067-0.63 0.133-0.936 0.132-0.937s0.004-0.014 0 0c0.174-0.7 0.381-1.387 1.415-3.18 1.407-2.441 3.476-5.462 7.705-11.544 26.171-37.644 72.664-98.107 131.72-148.841 59.589-51.194 127.932-89.024 198.344-89.024 64.817 0 127.788 32.064 183.588 76.774l-97.813 74.097c-23.359-19.075-53.229-30.553-85.775-30.553-74.934 0-135.68 60.746-135.68 135.68 0 19.218 4.011 37.535 11.236 54.129l-107.683 81.578zM437.697 493.235c-0.798-4.285-1.215-8.709-1.215-13.237 0-39.588 32.092-71.68 71.68-71.68 11.428 0 22.23 2.666 31.823 7.426l-102.288 77.491zM508.162 735.998c-28.245 0-56.188-6.061-83.551-16.776-16.456-6.444-35.021 1.674-41.464 18.131s1.674 35.021 18.131 41.464c33.497 13.116 69.367 21.181 106.884 21.181 92.849 0 175.748-49.238 240.049-104.48 64.838-55.7 114.88-121.037 142.56-160.853 0.442-0.634 0.89-1.27 1.338-1.91 6.72-9.625 13.862-19.863 17.363-33.969 2.835-11.447 2.835-26.129 0-37.576-3.501-14.106-10.65-24.344-17.363-33.969-0.448-0.639-0.896-1.276-1.338-1.91-5.152-7.412-11.053-15.669-17.651-24.554-10.541-14.186-30.586-17.142-44.774-6.602-14.182 10.54-17.139 30.585-6.598 44.771 6.17 8.307 11.68 16.016 16.48 22.919 4.224 6.081 6.298 9.103 7.706 11.543 1.024 1.776 1.242 2.487 1.414 3.181 0 0.001 0.064 0.307 0.128 0.937 0.077 0.692 0.122 1.543 0.122 2.472s-0.045 1.78-0.122 2.472c-0.064 0.63-0.128 0.937-0.128 0.937-0.006 0.014 0 0 0 0-0.173 0.701-0.384 1.387-1.414 3.181-1.408 2.44-3.482 5.462-7.706 11.544-26.17 37.644-72.666 98.107-131.718 148.841-59.59 51.194-127.935 89.025-198.347 89.025z" />
<glyph unicode="&#xe92f;" glyph-name="eye-on" d="M308.061 644.457c-61.978-52.024-110.741-113.992-138.17-152.54-4.424-6.218-6.612-9.337-8.102-11.863-1.097-1.859-1.336-2.616-1.522-3.343 0.001-0.001-0.070-0.317-0.14-0.967-0.077-0.71-0.127-1.581-0.127-2.532s0.050-1.823 0.127-2.532c0.070-0.65 0.141-0.966 0.14-0.967s-0.002 0.006-0.005 0.019c0.186-0.733 0.42-1.487 1.527-3.363 1.49-2.525 3.677-5.645 8.102-11.862 27.429-38.548 76.192-100.515 138.17-152.542 62.473-52.435 134.508-91.539 209.059-91.539s146.586 39.104 209.056 91.539c61.984 52.027 110.746 113.994 138.176 152.542 4.422 6.218 6.611 9.337 8.102 11.862 1.094 1.86 1.331 2.617 1.517 3.344 0 0.001 0.070 0.317 0.141 0.967 0.077 0.709 0.128 1.581 0.128 2.532s-0.051 1.822-0.128 2.532c-0.077 0.744-0.16 1.050-0.134 0.947-0.186 0.733-0.422 1.487-1.523 3.363-1.491 2.526-3.68 5.645-8.102 11.863-27.43 38.547-76.192 100.515-138.176 152.54-62.47 52.439-134.505 91.543-209.056 91.543s-146.586-39.104-209.059-91.543zM266.914 693.477c67.316 56.504 153.724 106.523 250.206 106.523s182.893-50.019 250.208-106.523c67.808-56.92 120.179-123.716 149.165-164.454 0.467-0.65 0.934-1.302 1.402-1.957 7.027-9.838 14.47-20.252 18.118-34.634 2.97-11.706 2.97-26.733 0-38.438-3.648-14.383-11.091-24.796-18.118-34.634-0.467-0.655-0.934-1.307-1.402-1.957-28.986-40.738-81.357-107.533-149.165-164.454-67.315-56.506-153.725-106.522-250.208-106.522s-182.89 50.016-250.206 106.522c-67.81 56.922-120.182 123.716-149.169 164.454-0.463 0.65-0.929 1.302-1.396 1.957-7.030 9.838-14.471 20.252-18.12 34.634-2.97 11.706-2.97 26.733 0 38.438 3.649 14.383 11.091 24.796 18.12 34.634 0.468 0.655 0.934 1.307 1.396 1.957 28.988 40.738 81.359 107.535 149.169 164.454zM517.12 547.336c-40.938 0-74.124-33.186-74.124-74.124s33.186-74.124 74.124-74.124c40.938 0 74.124 33.186 74.124 74.124s-33.186 74.124-74.124 74.124zM378.996 473.212c0 76.284 61.84 138.124 138.124 138.124s138.125-61.84 138.125-138.124c0-76.284-61.841-138.124-138.125-138.124s-138.124 61.84-138.124 138.124z" />
<glyph unicode="&#xe930;" glyph-name="menu" d="M96 704c0 17.673 14.327 32 32 32h745.146c17.67 0 32-14.327 32-32s-14.33-32-32-32h-745.146c-17.673 0-32 14.327-32 32zM96 466.909c0 17.673 14.327 32 32 32h745.146c17.67 0 32-14.327 32-32s-14.33-32-32-32h-745.146c-17.673 0-32 14.326-32 32zM96 229.818c0 17.677 14.327 32 32 32h745.146c17.67 0 32-14.323 32-32 0-17.67-14.33-32-32-32h-745.146c-17.673 0-32 14.33-32 32z" />
<glyph unicode="&#xe931;" glyph-name="chart-bar" d="M347.586 822.951c0 46.951 38.764 83.717 84.966 83.717h158.897c46.202 0 84.968-36.767 84.968-83.717v-381.738h166.618c46.202 0 84.966-36.766 84.966-83.717v-284.447c0-46.95-38.765-83.712-84.966-83.712h-662.068c-46.202 0-84.966 36.762-84.966 83.712v491.315c0 46.951 38.764 83.717 84.966 83.717h166.62v174.869zM347.586 584.082h-166.62c-12.303 0-20.966-9.542-20.966-19.717v-491.315c0-10.17 8.663-19.712 20.966-19.712h166.62v530.744zM411.586 53.338h200.828v769.613c0 10.174-8.663 19.717-20.966 19.717h-158.897c-12.303 0-20.966-9.543-20.966-19.717v-769.613zM676.416 53.338h166.618c12.301 0 20.966 9.542 20.966 19.712v284.447c0 10.174-8.666 19.717-20.966 19.717h-166.618v-323.876z" />
<glyph unicode="&#xe932;" glyph-name="chart-line" d="M85.344 864.004c17.673 0 32-14.327 32-32v-519.607l256.165 245.423c10.659 10.212 26.922 11.808 39.363 3.862l209.796-133.999 292.161 326.561c11.782 13.171 32.013 14.296 45.184 2.512s14.298-32.014 2.515-45.185l-310.304-346.838c-10.464-11.692-27.854-14.077-41.075-5.632l-211.528 135.105-282.277-270.442v-1.203c0-28.301 0.027-47.52 1.293-62.368 1.231-14.432 3.458-21.837 6.233-27.053 6.66-12.525 17.428-22.957 30.988-29.581 5.923-2.886 14.168-5.101 29.542-6.304 15.709-1.229 35.968-1.248 65.439-1.248h636.118c17.677 0 32-14.33 32-32 0-17.677-14.323-32-32-32h-637.404c-27.872 0-50.644 0-69.148 1.446-19.121 1.498-36.421 4.685-52.623 12.595-25.365 12.384-46.245 32.269-59.418 57.037-8.499 15.981-11.909 33.056-13.496 51.667-1.526 17.894-1.525 39.853-1.525 66.432v16.179c0 0.038 0 0.077 0 0.109v594.532c0 17.673 14.327 32 32 32z" />
<glyph unicode="&#xe933;" glyph-name="chart-pie" d="M466.424 896c0 17.673 14.327 32 32 32 265.096 0 493.576-228.479 493.576-493.576 0-17.673-14.33-32-32-32h-461.576c-17.673 0-32 14.327-32 32v461.576zM530.424 862.708v-396.284h396.283c-16.595 205.402-190.88 379.688-396.283 396.284zM364.923 872.515c6.968-16.241-0.55-35.056-16.791-42.024-148.333-63.64-252.132-210.98-252.132-382.49 0-229.754 186.25-416 416-416 171.514 0 318.848 103.795 382.49 252.134 6.97 16.237 25.786 23.757 42.022 16.787 16.243-6.97 23.763-25.779 16.794-42.022-73.37-171.014-243.302-290.899-441.306-290.899-265.097 0-480 214.906-480 480 0 198.004 119.884 367.936 290.899 441.306 16.241 6.968 35.056-0.549 42.024-16.791z" />
<glyph unicode="&#xe934;" glyph-name="chat" d="M458.667 736c-135.057 0-234.667-90.962-234.667-192 0-35.77 19.097-77.011 49.838-110.467l0.246-0.268c23.436-25.505 41.309-44.957 53.932-59.165 6.331-7.125 11.596-13.215 15.695-18.261 3.722-4.58 7.791-9.864 10.566-14.94 0.543-0.993 1.1-2.003 1.641-2.987 1.039-1.886 2.024-3.674 2.758-5.060 1.284-2.428 2.776-5.417 4.049-9.035s1.98-6.882 2.499-9.583c0.296-1.536 0.648-3.552 1.019-5.67 0.193-1.107 0.392-2.24 0.59-3.354 1.388-7.789 1.576-16.16 1.363-24.87 14.533 15.366 29.658 30.893 42.35 42.904 6.603 6.249 13.092 12.065 18.786 16.501 2.794 2.177 6.080 4.56 9.542 6.553l0.12 0.069c2.115 1.22 9.768 5.634 19.674 5.634 135.057 0 234.664 90.962 234.664 192s-99.608 192-234.664 192zM160 544c0 146.385 139.172 256 298.667 256s298.664-109.615 298.664-256c0-143.762-134.227-252.058-290.111-255.898-3.185-2.592-7.445-6.387-12.685-11.347-12.012-11.366-27.064-26.842-42.036-42.714-14.892-15.789-29.373-31.616-40.153-43.52-5.384-5.946-9.83-10.899-12.926-14.355l-3.575-4.006-1.217-1.37c-9.078-10.24-23.677-13.594-36.303-8.314-12.625 5.274-20.497 17.997-19.587 31.654l3.33 49.939c1.068 16.032 1.811 27.232 2.087 35.738 0.284 8.723-0.028 12.48-0.329 14.17-0.332 1.862-0.579 3.283-0.78 4.435-0.276 1.587-0.466 2.675-0.669 3.731-0.029 0.16-0.057 0.294-0.081 0.416-0.055 0.102-0.12 0.23-0.194 0.365-0.502 0.954-1.038 1.926-1.814 3.328-0.564 1.024-1.258 2.285-2.159 3.93 0.068-0.122 0.057-0.109-0.071 0.077-0.333 0.474-1.455 2.067-4.016 5.222-3.216 3.955-7.754 9.228-13.869 16.11-12.223 13.758-29.733 32.815-53.461 58.639-37.919 41.268-66.711 97.252-66.711 153.769zM825.824 505.727c12.941 12.040 33.19 11.313 45.229-1.624 35.162-37.782 56.947-86.523 56.947-140.252 0-43.26-18.963-85.778-44.909-119.314-23.45-30.31-40.838-52.794-52.883-68.768-6.029-8-10.534-14.112-13.696-18.624-2.342-3.341-3.45-5.094-3.84-5.722-0.218-0.339-0.224-0.352-0.102-0.096-1.216-2.579-2.342-4.883-3.066-6.362-0.115-0.243-0.224-0.461-0.314-0.653-0.032-0.218-0.064-0.461-0.102-0.723-0.23-1.632-0.589-4.173-1.018-6.989-0.73-4.787-0.339-13.907 1.619-43.75l1.76-26.752c0.902-13.69-7.027-26.432-19.706-31.674s-27.283-1.818-36.314 8.512l-1.030 1.178-2.995 3.398c-2.598 2.944-6.323 7.155-10.842 12.211-9.043 10.125-21.184 23.584-33.658 36.998-12.563 13.504-25.126 26.605-35.117 36.186-3.629 3.488-6.643 6.24-9.011 8.269-45.683 1.408-88.557 13.229-125.386 33.043-15.564 8.371-21.393 27.776-13.020 43.341s27.777 21.395 43.341 13.018c29.848-16.058 65.592-25.542 104.287-25.542 9.818 0 17.306-4.39 19.206-5.504 0.051-0.032 0.102-0.058 0.141-0.083 3.206-1.869 6.182-4.064 8.614-5.99 4.966-3.923 10.554-9.011 16.141-14.368 8.838-8.48 19.034-18.97 29.165-29.709 0.128 0.883 0.237 1.645 0.339 2.381 0.109 0.806 0.218 1.587 0.346 2.464 0.288 1.965 0.768 5.203 1.875 8.819 1.107 3.622 2.515 6.579 3.379 8.371 0.384 0.794 0.723 1.498 1.082 2.234 0.653 1.331 1.35 2.758 2.406 5.005 2.323 4.922 6.080 10.483 9.427 15.251 3.802 5.414 8.819 12.218 14.982 20.39 12.314 16.333 29.952 39.13 53.197 69.178l0.173 0.224c20.006 25.862 31.526 54.972 31.526 80.152 0 35.779-14.387 69.348-39.795 96.65-12.045 12.937-11.315 33.185 1.619 45.226z" />
<glyph unicode="&#xe935;" glyph-name="close" d="M854.63 790.627c12.493-12.497 12.493-32.758 0-45.254l-640.003-640.003c-12.497-12.493-32.758-12.493-45.254 0-12.497 12.499-12.497 32.762 0 45.261l639.997 639.997c12.499 12.497 32.762 12.497 45.261 0zM169.373 790.627c12.497 12.497 32.758 12.497 45.254 0l640.003-639.997c12.493-12.499 12.493-32.762 0-45.261-12.499-12.493-32.762-12.493-45.261 0l-639.997 640.003c-12.497 12.497-12.497 32.758 0 45.254z" />
<glyph unicode="&#xe936;" glyph-name="kebab-menu" d="M640 800c0 53.020-42.98 96-96 96s-96-42.98-96-96c0-53.020 42.98-96 96-96s96 42.98 96 96zM640 448c0 53.020-42.98 96-96 96s-96-42.98-96-96c0-53.020 42.98-96 96-96s96 42.98 96 96zM640 96c0 53.018-42.98 96-96 96s-96-42.982-96-96c0-53.018 42.98-96 96-96s96 42.982 96 96z" />
<glyph unicode="&#xe937;" glyph-name="turn-off" d="M512 864c17.673 0 32-14.327 32-32v-302.545c0-17.674-14.327-32-32-32s-32 14.326-32 32v302.545c0 17.673 14.327 32 32 32zM261.971 741.197c12.545-12.449 12.622-32.71 0.173-45.254-63.172-63.656-102.143-151.218-102.143-247.943 0-194.406 157.596-352 352-352 194.406 0 352 157.594 352 352 0 96.725-38.97 184.286-102.144 247.943-12.448 12.544-12.371 32.805 0.173 45.254s32.806 12.372 45.254-0.173c74.586-75.156 120.717-178.734 120.717-293.025 0-229.754-186.246-416-416-416-229.75 0-416 186.246-416 416 0 114.291 46.132 217.869 120.716 293.025 12.449 12.545 32.71 12.622 45.254 0.173z" />
<glyph unicode="&#xe938;" glyph-name="arrow-bottom" d="M512 864c17.673 0 32-14.327 32-32v-768c0-17.67-14.327-32-32-32s-32 14.33-32 32v768c0 17.673 14.327 32 32 32zM169.373 406.627c12.497 12.497 32.758 12.497 45.254 0l297.373-297.373 297.37 297.373c12.499 12.497 32.762 12.497 45.261 0 12.493-12.497 12.493-32.758 0-45.254l-320.003-320.003c-6.001-5.997-14.14-9.37-22.627-9.37s-16.627 3.373-22.627 9.37l-320 320.003c-12.497 12.497-12.497 32.758 0 45.254z" />
<glyph unicode="&#xe939;" glyph-name="arrow-left" d="M95.992 447.969c0 17.673 14.327 32 32 32h768.001c17.67 0 32-14.327 32-32s-14.33-32-32-32h-768.001c-17.673 0-32 14.327-32 32zM470.627 790.627c12.497-12.497 12.497-32.758 0-45.254l-297.372-297.373 297.372-297.37c12.497-12.499 12.497-32.762 0-45.261-12.497-12.493-32.758-12.493-45.254 0l-320 320.003c-6.001 6.001-9.373 14.14-9.373 22.627s3.372 16.627 9.373 22.627l320 320c12.497 12.497 32.758 12.497 45.254 0z" />
<glyph unicode="&#xe93a;" glyph-name="arrow-right" d="M95.985 447.969c0 17.673 14.326 32 32 32h768.003c17.67 0 32-14.327 32-32s-14.33-32-32-32h-768.003c-17.674 0-32 14.327-32 32zM553.373 790.627c12.497 12.497 32.758 12.497 45.254 0l320.003-320c5.997-6.001 9.37-14.14 9.37-22.627s-3.373-16.627-9.37-22.627l-320.003-320.003c-12.497-12.493-32.758-12.493-45.254 0-12.497 12.499-12.497 32.762 0 45.261l297.373 297.37-297.373 297.373c-12.497 12.497-12.497 32.758 0 45.254z" />
<glyph unicode="&#xe93b;" glyph-name="arrow-top" d="M512 864c17.673 0 32-14.327 32-32v-768c0-17.67-14.327-32-32-32s-32 14.33-32 32v768c0 17.673 14.327 32 32 32zM512 864c8.487 0 16.627-3.372 22.627-9.373l320.003-320c12.493-12.497 12.493-32.758 0-45.254-12.499-12.497-32.762-12.497-45.261 0l-297.37 297.372-297.373-297.372c-12.497-12.497-32.758-12.497-45.254 0s-12.497 32.758 0 45.254l320 320c6.001 6.001 14.14 9.373 22.627 9.373z" />
<glyph unicode="&#xe93c;" glyph-name="chevron-down" d="M235.175 600.296c13.419 11.501 33.62 9.948 45.122-3.471l231.704-270.321 231.705 270.321c11.501 13.418 31.699 14.972 45.12 3.471s14.97-31.703 3.469-45.122l-255.997-298.668c-6.079-7.091-14.955-11.174-24.296-11.174s-18.217 4.083-24.296 11.174l-256 298.669c-11.501 13.418-9.948 33.62 3.471 45.121z" />
<glyph unicode="&#xe93d;" glyph-name="chevron-left" d="M664.294 724.825c11.501-13.419 9.946-33.62-3.469-45.122l-270.323-231.704 270.323-231.705c13.414-11.501 14.97-31.699 3.469-45.12s-31.702-14.97-45.121-3.469l-298.666 255.997c-7.093 6.079-11.175 14.955-11.175 24.296s4.082 18.217 11.175 24.296l298.666 256c13.419 11.501 33.62 9.948 45.121-3.471z" />
<glyph unicode="&#xe93e;" glyph-name="chevron-right" d="M359.704 724.825c11.501 13.418 31.703 14.972 45.121 3.471l298.669-256c7.091-6.079 11.174-14.955 11.174-24.296s-4.083-18.217-11.174-24.296l-298.669-255.997c-13.418-11.501-33.62-9.952-45.121 3.469s-9.948 33.619 3.471 45.12l270.321 231.705-270.321 231.704c-13.418 11.501-14.972 31.703-3.471 45.122z" />
<glyph unicode="&#xe93f;" glyph-name="chevron-top" d="M512.001 650.666c9.341 0 18.217-4.082 24.296-11.175l255.997-298.666c11.501-13.419 9.952-33.619-3.469-45.119s-33.619-9.952-45.12 3.469l-231.705 270.321-231.704-270.321c-11.501-13.421-31.703-14.97-45.122-3.469s-14.972 31.7-3.471 45.119l256 298.666c6.079 7.093 14.955 11.175 24.296 11.175z" />
<glyph unicode="&#xe940;" glyph-name="atm" horiz-adv-x="1152" d="M604.576 419.428c12.497 12.497 32.758 12.497 45.254 0l102.4-102.398c12.499-12.499 12.499-32.762 0-45.254-12.499-12.499-32.755-12.499-45.254 0l-102.4 102.397c-12.497 12.497-12.497 32.758 0 45.255zM460.929 527.724c4.987 59.845 55.014 105.877 115.068 105.877s110.077-46.032 115.069-105.877l10.714-128.619c6.138-73.59-51.936-136.705-125.783-136.705-73.845 0-131.918 63.116-125.786 136.705l10.718 128.619zM575.996 569.601c-26.767 0-49.066-20.517-51.289-47.192l-10.718-128.62c-3.023-36.276 25.604-67.389 62.007-67.389s65.028 31.113 62.006 67.389l-10.718 128.619c-2.223 26.675-24.522 47.192-51.288 47.192zM341.781 716.605c5.043 11.766 16.612 19.395 29.412 19.395h409.6c12.8 0 24.371-7.629 29.414-19.395l-29.414-12.605c29.414 12.605 29.408 12.611 29.414 12.605l0.128-0.308 0.352-0.824 1.331-3.143c1.152-2.745 2.835-6.769 4.966-11.946 4.262-10.354 10.33-25.329 17.606-43.923 14.547-37.167 33.946-88.896 53.357-147.142 38.406-115.212 78.445-260.41 78.445-368.519 0-17.67-14.33-32-32-32h-716.8c-17.673 0-32 14.33-32 32 0 108.109 40.038 253.307 78.442 368.519 19.415 58.246 38.815 109.975 53.358 147.142 7.276 18.594 13.347 33.569 17.61 43.923 2.132 5.178 3.812 9.201 4.967 11.946l1.328 3.143 0.35 0.824 0.132 0.308c0.003 0.006 0 0 29.412-12.605l-29.412 12.605zM392.534 672c-4.001-9.775-9.315-22.95-15.541-38.861-14.256-36.433-33.257-87.104-52.242-144.058-34.327-102.983-67.349-222.924-73.961-316.281h650.406c-6.611 93.357-39.635 213.298-73.958 316.281-18.989 56.954-37.99 107.625-52.243 144.058-6.227 15.911-11.539 29.086-15.539 38.861h-366.922zM32 857.601c0 17.674 14.327 32 32 32h1024c17.67 0 32-14.326 32-32v-256c0-17.673-14.33-32-32-32h-256c-17.67 0-32 14.327-32 32s14.33 32 32 32h224v192h-960v-192h224c17.673 0 32-14.326 32-32s-14.327-32-32-32h-256c-17.673 0-32 14.327-32 32v256zM185.594 704c0 17.673 14.327 32 32 32h716.8c17.67 0 32-14.327 32-32s-14.33-32-32-32h-716.8c-17.673 0-32 14.327-32 32zM236.797 38.4c0 17.67 14.327 32 32 32h614.403c17.67 0 32-14.33 32-32 0-17.677-14.33-32-32-32h-614.403c-17.673 0-32 14.323-32 32z" />
<glyph unicode="&#xe941;" glyph-name="send" d="M147.299 648.828c-28.941 0-52.403-23.461-52.403-52.402v-420.435c0-28.944 23.461-52.403 52.403-52.403h729.402c28.941 0 52.403 23.459 52.403 52.403v241.114c0 8.531 6.915 15.446 15.446 15.446 8.534 0 15.45-6.915 15.45-15.446v-241.114c0-46.006-37.293-83.299-83.299-83.299h-729.402c-46.005 0-83.299 37.293-83.299 83.299v420.435c0 46.004 37.294 83.299 83.299 83.299h316.64c8.531 0 15.446-6.916 15.446-15.448s-6.915-15.448-15.446-15.448h-316.64zM64 389.712l334.15-297.024h-256.909c-42.659 0-77.241 34.582-77.241 77.242v219.782zM94.897 320.909v-150.979c0-25.594 20.749-46.342 46.345-46.342h175.644l-221.988 197.322zM810.042 798.786c6.032 6.033 15.814 6.033 21.846 0l123.587-123.586c6.032-6.033 6.032-15.814 0-21.847l-123.587-123.586c-6.032-6.032-15.814-6.032-21.846 0s-6.032 15.814 0 21.846l112.662 112.663-112.662 112.663c-6.032 6.033-6.032 15.814 0 21.847zM620.138 664.276c0 8.532 6.918 15.448 15.45 15.448h308.966c8.531 0 15.446-6.916 15.446-15.448s-6.915-15.448-15.446-15.448h-308.966c-8.531 0-15.45 6.916-15.45 15.448zM562.87 304.442c6.032 6.032 15.814 6.032 21.846 0l61.795-61.795c6.032-6.032 6.032-15.814 0-21.846-6.035-6.032-15.814-6.032-21.85 0l-61.792 61.795c-6.032 6.032-6.032 15.811 0 21.846zM403.862 401.654c0 68.256 55.331 123.587 123.584 123.587 68.256 0 123.587-55.331 123.587-123.587v-61.792c0-68.256-55.331-123.587-123.587-123.587-68.253 0-123.584 55.331-123.584 123.587v61.792zM527.446 494.346c-51.19 0-92.688-41.501-92.688-92.691v-61.792c0-51.19 41.498-92.691 92.688-92.691 51.194 0 92.691 41.501 92.691 92.691v61.792c0 51.19-41.498 92.691-92.691 92.691z" />
<glyph unicode="&#xe942;" glyph-name="withdraw" d="M645.331 606.867c53.021 0 96-42.982 96-96v-48c0-20.736-6.573-39.936-17.75-55.629l13.066-13.066c6.246-6.25 6.246-16.378 0-22.627-6.25-6.25-16.381-6.25-22.627 0l-13.066 13.066c-15.693-11.174-34.89-17.744-55.622-17.744-53.018 0-96 42.979-96 96v48c0 53.018 42.982 96 96 96zM700.467 430.352c5.632 9.526 8.864 20.643 8.864 32.515v48c0 35.344-28.653 64-64 64-35.344 0-64-28.656-64-64v-48c0-35.347 28.656-64 64-64 11.869 0 22.979 3.229 32.509 8.858l-11.821 11.821c-6.25 6.25-6.25 16.378 0 22.627 6.246 6.25 16.378 6.25 22.627 0l11.821-11.821zM377.715 672c-30.614 0-55.43-24.817-55.43-55.43v-180.758l54.717 46.986c5.133 5.334 11.219 9.642 17.965 12.64 7.043 3.13 14.634 4.758 22.33 4.758 7.699 0 15.29-1.629 22.333-4.758 7.037-3.13 13.357-7.683 18.627-13.338 5.267-5.654 9.392-12.307 12.186-19.552 2.797-7.245 4.224-14.973 4.224-22.752 0-7.782-1.427-15.51-4.224-22.752-2.749-7.123-6.781-13.674-11.923-19.267l-21.235-24.944 81.283-80.259h402.003c30.614 0 55.43 24.816 55.43 55.427v134.285c0 8.838 7.162 16 16 16 8.835 0 16-7.162 16-16v-134.285c0-48.285-39.146-87.427-87.43-87.427h-570.256v-73.997c0-13.584-5.075-28.403-11.194-41.741-6.294-13.722-14.541-27.654-22.56-39.958-8.054-12.355-16.079-23.363-22.076-31.27-3.004-3.962-5.516-7.165-7.286-9.389-0.886-1.114-1.588-1.984-2.075-2.586l-0.566-0.694-0.155-0.189-0.044-0.054-0.022-0.026c-5.627-6.813-15.712-7.776-22.525-2.147-6.812 5.626-7.772 15.712-2.147 22.525l0.023 0.029 0.112 0.138 0.476 0.582c0.426 0.525 1.063 1.315 1.881 2.342 1.637 2.058 3.995 5.066 6.832 8.806 5.687 7.498 13.242 17.869 20.766 29.411 7.558 11.59 14.891 24.070 20.281 35.821 5.565 12.134 8.28 21.846 8.28 28.4v89.997c0 3.798 1.353 7.475 3.817 10.371l112.234 131.827c0.154 0.182 0.314 0.358 0.477 0.534 2.413 2.592 4.384 5.728 5.747 9.258 1.363 3.533 2.077 7.35 2.077 11.232s-0.714 7.699-2.077 11.232c-1.363 3.53-3.334 6.666-5.747 9.258-2.413 2.589-5.216 4.579-8.214 5.91-2.995 1.334-6.163 2-9.331 2-3.165 0-6.333-0.666-9.328-2-3.002-1.331-5.802-3.322-8.214-5.91-0.406-0.435-0.832-0.845-1.283-1.232l-116.050-99.651c-6.704-5.757-16.805-4.989-22.562 1.718-5.757 6.704-4.989 16.803 1.716 22.56l28.711 24.656v146.646c-2.68-1.77-5.399-3.558-8.15-5.366-22.759-14.976-47.674-31.373-70.387-49.754-16.973-13.738-31.543-27.731-41.768-41.738-10.248-14.038-15.316-26.957-15.316-38.88v-180.646c0-3.040-0.867-6.019-2.498-8.586l-106.666-167.741c-4.741-7.456-14.63-9.658-22.087-4.915-7.457 4.739-9.658 14.63-4.916 22.086l104.167 163.814v175.987c0 21.149 8.954 40.602 21.471 57.747 12.54 17.178 29.48 33.174 47.481 47.744 23.801 19.264 51.569 37.565 75.116 53.085v0c8.536 5.626 16.517 10.886 23.553 15.693v23.056c0 48.287 39.142 87.43 87.43 87.43h326.285c8.835 0 16-7.164 16-16s-7.165-16-16-16h-326.285zM368.95 292.573h104.070l-56.541 55.827-47.53-55.827zM788.685 715.314c-6.246-6.248-6.246-16.379 0-22.627 6.25-6.249 16.381-6.249 22.63 0l68.685 68.686v-185.372c0-8.835 7.165-16 16-16s16 7.165 16 16v185.372l68.685-68.686c6.25-6.249 16.381-6.249 22.63 0 6.246 6.248 6.246 16.379 0 22.627l-96 96c-0.070 0.069-0.141 0.137-0.208 0.204-2.88 2.775-6.794 4.482-11.107 4.482-4.426 0-8.432-1.797-11.331-4.702zM788.685 715.314l95.984 95.984z" />
<glyph unicode="&#xe943;" glyph-name="bank" d="M497.869 811.947c8.649 5.405 19.618 5.405 28.267 0l341.333-213.333c10.086-6.305 14.78-18.53 11.499-29.965-3.277-11.436-13.734-19.315-25.63-19.315h-682.669c-11.896 0-22.353 7.88-25.633 19.315s1.412 23.66 11.5 29.965l341.333 213.333zM263.65 602.667h496.704l-248.35 155.22-248.354-155.22zM768 602.667c14.729 0 26.667-11.939 26.667-26.667v-384c0-14.729-11.938-26.667-26.667-26.667s-26.667 11.938-26.667 26.667v384c0 14.728 11.938 26.667 26.667 26.667zM640 602.667c14.729 0 26.667-11.939 26.667-26.667v-384c0-14.729-11.938-26.667-26.667-26.667s-26.667 11.938-26.667 26.667v384c0 14.728 11.938 26.667 26.667 26.667zM384 602.667c14.728 0 26.667-11.939 26.667-26.667v-384c0-14.729-11.939-26.667-26.667-26.667s-26.667 11.938-26.667 26.667v384c0 14.728 11.939 26.667 26.667 26.667zM256 602.667c14.728 0 26.667-11.939 26.667-26.667v-384c0-14.729-11.939-26.667-26.667-26.667s-26.667 11.938-26.667 26.667v384c0 14.728 11.939 26.667 26.667 26.667zM810.129 218.667c4.834 0.094 9.6-1.135 13.773-3.511 3.981-2.27 7.415-5.585 9.847-9.796 0.333-0.567 0.64-1.152 0.93-1.745l35.14-70.281h26.18c14.729 0 26.667-11.938 26.667-26.667s-11.938-26.667-26.667-26.667h-42.052c-0.393-0.009-0.785-0.009-1.178 0h-681.542c-0.39-0.009-0.782-0.009-1.173 0h-42.055c-14.728 0-26.667 11.938-26.667 26.667s11.939 26.667 26.667 26.667h26.182l35.141 70.281c0.282 0.58 0.584 1.152 0.905 1.707 2.433 4.228 5.879 7.561 9.872 9.835 4.17 2.377 8.938 3.605 13.776 3.511h596.254zM794.189 165.333h-564.379l-16-32h596.379l-16 32z" />
<glyph unicode="&#xe944;" glyph-name="phone-call" d="M32 699.171c0 126.379 102.451 228.829 228.829 228.829 21.538 0 42.193-8.556 57.423-23.785l87.901-87.901c10.033-10.032 18.888-18.886 25.622-26.819 7.165-8.44 13.789-17.917 17.628-29.734 5.632-17.333 5.632-36.005 0-53.338-3.839-11.817-10.463-21.295-17.628-29.734-6.735-7.933-15.589-16.787-25.622-26.819l-33.064-33.064c-12.663-12.664-16.672-16.781-19.585-20.653-15.533-20.653-19.607-47.745-10.835-72.052 1.645-4.557 4.266-9.672 12.645-25.5 13.872-26.202 20.156-38.037 26.998-49.127 32.91-53.336 77.823-98.249 131.159-131.156 11.090-6.848 22.924-13.126 49.127-27.002l11.26-5.958c18.529-9.811 24.474-12.832 30.058-14.669 18.037-5.914 37.631-4.922 54.975 2.784 5.37 2.387 10.982 5.997 28.422 17.626l44.23 29.482c1.056 0.705 2.112 1.41 3.155 2.112 13.805 9.237 26.854 17.969 41.626 21.631 13.638 3.379 27.891 3.379 41.53 0 14.771-3.663 27.821-12.394 41.626-21.632 1.043-0.701 2.099-1.406 3.155-2.112l63.347-42.23c41.242-27.494 66.016-73.786 66.016-123.354 0-103.27-83.725-186.995-186.995-186.995h-134.682c-64.56 0-128.173 15.552-185.453 45.338-174.495 90.739-316.796 233.037-407.533 407.532-29.786 57.281-45.337 120.893-45.337 185.455v92.845zM260.829 864c-91.033 0-164.829-73.796-164.829-164.829v-92.845c0-54.283 13.075-107.768 38.118-155.929 84.669-162.825 217.453-295.606 380.278-380.278 48.161-25.043 101.646-38.118 155.927-38.118h134.682c67.93 0 122.995 55.066 122.995 122.995 0 28.173-14.080 54.477-37.517 70.099l-63.347 42.234c-19.072 12.717-22.208 14.259-24.678 14.874-3.526 0.877-7.206 0.877-10.733 0-2.47-0.614-5.606-2.157-24.678-14.874l-44.23-29.485c-0.73-0.486-1.453-0.973-2.17-1.446-14.381-9.594-24.774-16.531-35.77-21.414-31.84-14.144-67.799-15.962-100.904-5.107-11.431 3.75-22.471 9.6-37.752 17.696-0.758 0.403-1.526 0.806-2.305 1.222l-12.41 6.566c-24.755 13.107-38.541 20.403-51.64 28.486-61.819 38.144-113.875 90.201-152.019 152.020-8.082 13.098-15.381 26.886-28.486 51.642l-0.608 1.148c-0.358 0.677-0.711 1.344-1.059 2.001-6.89 13.007-11.848 22.366-15.222 31.716-16.102 44.615-8.625 94.342 19.886 132.248 5.976 7.945 13.465 15.432 23.877 25.839 0.526 0.525 1.059 1.059 1.601 1.599l32.221 32.222c11.126 11.126 18.092 18.127 22.929 23.825 4.595 5.412 5.361 7.51 5.55 8.092 1.456 4.479 1.456 9.304 0 13.784-0.189 0.582-0.956 2.68-5.55 8.093-4.838 5.698-11.804 12.699-22.929 23.825l-87.060 87.060c-3.227 3.227-7.604 5.040-12.168 5.040zM642.912 896c0 17.673 14.323 32 32 32 175.123 0 317.088-141.967 317.088-317.091 0-17.673-14.33-32-32-32s-32 14.327-32 32c0 139.779-113.312 253.091-253.088 253.091-17.677 0-32 14.327-32 32zM588.606 733.091c0 17.673 14.327 32 32 32 115.144 0 208.482-93.342 208.482-208.485 0-17.673-14.323-32-32-32-17.67 0-32 14.327-32 32 0 79.796-64.685 144.485-144.482 144.485-17.673 0-32 14.326-32 32z" />
<glyph unicode="&#xe945;" glyph-name="phone" d="M32 699.171c0 126.379 102.451 228.829 228.829 228.829 21.538 0 42.193-8.556 57.423-23.785l87.901-87.901c10.033-10.032 18.888-18.886 25.622-26.819 7.165-8.44 13.789-17.917 17.628-29.734 5.632-17.333 5.632-36.005 0-53.338-3.839-11.817-10.463-21.295-17.628-29.734-6.735-7.933-15.589-16.787-25.622-26.819l-33.064-33.064c-12.663-12.664-16.672-16.781-19.585-20.653-15.533-20.653-19.607-47.745-10.835-72.052 1.645-4.557 4.266-9.672 12.645-25.5 13.872-26.202 20.156-38.037 26.998-49.127 32.91-53.336 77.823-98.249 131.159-131.156 11.090-6.848 22.924-13.126 49.127-27.002l11.26-5.958c18.529-9.811 24.474-12.832 30.058-14.669 18.037-5.914 37.631-4.922 54.975 2.784 5.37 2.387 10.982 5.997 28.422 17.626l44.23 29.482c1.056 0.705 2.112 1.41 3.155 2.112 13.805 9.237 26.854 17.969 41.626 21.631 13.638 3.379 27.891 3.379 41.53 0 14.771-3.663 27.821-12.394 41.626-21.632 1.043-0.701 2.099-1.406 3.155-2.112l63.347-42.23c41.242-27.494 66.016-73.786 66.016-123.354 0-103.27-83.725-186.995-186.995-186.995h-134.682c-64.56 0-128.173 15.552-185.453 45.338-174.495 90.739-316.796 233.037-407.533 407.532-29.786 57.281-45.337 120.893-45.337 185.455v92.845zM260.829 864c-91.033 0-164.829-73.796-164.829-164.829v-92.845c0-54.283 13.075-107.768 38.118-155.929 84.669-162.825 217.453-295.606 380.278-380.278 48.161-25.043 101.646-38.118 155.927-38.118h134.682c67.93 0 122.995 55.066 122.995 122.995 0 28.173-14.080 54.477-37.517 70.099l-63.347 42.234c-19.072 12.717-22.208 14.259-24.678 14.874-3.526 0.877-7.206 0.877-10.733 0-2.47-0.614-5.606-2.157-24.678-14.874l-44.23-29.485c-0.73-0.486-1.453-0.973-2.17-1.446-14.381-9.594-24.774-16.531-35.77-21.414-31.84-14.144-67.799-15.962-100.904-5.107-11.431 3.75-22.471 9.6-37.752 17.696-0.758 0.403-1.526 0.806-2.305 1.222l-12.41 6.566c-24.755 13.107-38.541 20.403-51.64 28.486-61.819 38.144-113.875 90.201-152.019 152.020-8.082 13.098-15.381 26.886-28.486 51.642l-0.608 1.148c-0.358 0.677-0.711 1.344-1.059 2.001-6.89 13.007-11.848 22.366-15.222 31.716-16.102 44.615-8.625 94.342 19.886 132.248 5.976 7.945 13.465 15.432 23.877 25.839 0.526 0.525 1.059 1.059 1.601 1.599l32.221 32.222c11.126 11.126 18.092 18.127 22.929 23.825 4.595 5.412 5.361 7.51 5.55 8.092 1.456 4.479 1.456 9.304 0 13.784-0.189 0.582-0.956 2.68-5.55 8.093-4.838 5.698-11.804 12.699-22.929 23.825l-87.060 87.060c-3.227 3.227-7.604 5.040-12.168 5.040z" />
<glyph unicode="&#xe946;" glyph-name="pin-bank" d="M100.78 720.824c5.83 9.434 16.13 15.176 27.22 15.176h768c11.091 0 21.389-5.743 27.219-15.176s6.362-21.215 1.402-31.135l-64-128c-5.421-10.841-16.499-17.689-28.621-17.689h-640c-12.121 0-23.201 6.848-28.621 17.689l-64 128c-4.96 9.92-4.43 21.7 1.401 31.135zM179.777 672l32-64h600.447l32 64h-664.447zM497.692 924.622c9.009 4.504 19.613 4.504 28.622 0l384.003-192c13.274-6.637 20.243-21.53 16.832-35.974s-16.307-24.648-31.149-24.648h-767.997c-14.841 0-27.734 10.204-31.144 24.648s3.559 29.337 16.833 35.974l384 192zM263.557 736h496.891l-248.445 124.223-248.446-124.223zM32 128c0 17.67 14.327 32 32 32h448c17.673 0 32-14.33 32-32s-14.327-32-32-32h-448c-17.673 0-32 14.33-32 32zM160 256c0 17.67 14.327 32 32 32h256c17.673 0 32-14.33 32-32s-14.327-32-32-32h-256c-17.673 0-32 14.33-32 32zM384 608c17.673 0 32-14.327 32-32v-320c0-17.67-14.327-32-32-32s-32 14.33-32 32v320c0 17.673 14.327 32 32 32zM256 608c17.673 0 32-14.327 32-32v-320c0-17.67-14.327-32-32-32s-32 14.33-32 32v320c0 17.673 14.327 32 32 32zM206.318 284.621c15.807-7.904 22.214-27.123 14.31-42.931l-64-128c-7.903-15.808-27.125-22.214-42.932-14.31s-22.214 27.123-14.31 42.931l64 128c7.903 15.808 27.125 22.214 42.932 14.31zM744 304c-13.254 0-24-10.746-24-24s10.746-24 24-24c13.254 0 24 10.746 24 24s-10.746 24-24 24zM656 280c0 48.601 39.398 88 88 88s88-39.399 88-88c0-48.602-39.398-88-88-88s-88 39.398-88 88zM744 416c-75.11 0-136-60.889-136-136 0-50.458 33.363-113.158 73.478-167.104 19.398-26.086 39.098-48.442 54.413-64.083 2.918-2.982 5.626-5.67 8.109-8.064 2.483 2.394 5.19 5.082 8.109 8.064 15.315 15.642 35.014 37.997 54.413 64.083 40.115 53.946 73.478 116.646 73.478 167.104 0 75.111-60.89 136-136 136zM544 280c0 110.457 89.543 200 200 200s200-89.543 200-200c0-72.742-45.037-150.042-86.118-205.293-21.21-28.518-42.803-53.062-60.038-70.669-8.582-8.762-16.384-16.122-22.758-21.504-3.117-2.637-6.4-5.229-9.574-7.347-1.549-1.037-3.686-2.374-6.182-3.578l-0.058-0.026c-1.542-0.742-7.45-3.584-15.27-3.584s-13.728 2.842-15.27 3.584l-0.058 0.026c-2.496 1.203-4.634 2.541-6.182 3.578-3.174 2.118-6.458 4.71-9.574 7.347-6.374 5.382-14.176 12.742-22.758 21.504-17.235 17.606-38.829 42.15-60.036 70.669-41.087 55.251-86.121 132.55-86.121 205.293z" />
<glyph unicode="&#xe947;" glyph-name="speedmeter" d="M512 864c-229.75 0-416-186.25-416-416 0-229.754 186.25-416 416-416 229.754 0 416 186.246 416 416 0 229.75-186.246 416-416 416zM32 448c0 265.097 214.903 480 480 480 265.094 0 480-214.903 480-480 0-265.094-214.906-480-480-480-265.097 0-480 214.906-480 480zM512 701.091c-139.778 0-253.091-113.313-253.091-253.091 0-17.673-14.326-32-32-32s-32 14.327-32 32c0 175.124 141.967 317.091 317.091 317.091 17.673 0 32-14.327 32-32s-14.327-32-32-32zM765.414 701.415c12.499-12.497 12.499-32.758 0-45.254l-162.908-162.909c-0.319-0.319-0.644-0.63-0.973-0.934 6.623-13.354 10.346-28.401 10.346-44.317 0-55.162-44.717-99.879-99.879-99.879s-99.879 44.717-99.879 99.879c0 55.162 44.717 99.879 99.879 99.879 15.917 0 30.964-3.724 44.317-10.346 0.303 0.33 0.614 0.654 0.934 0.973l162.909 162.909c12.499 12.497 32.762 12.497 45.254 0zM512 483.879c-19.815 0-35.879-16.064-35.879-35.879s16.064-35.879 35.879-35.879c19.815 0 35.879 16.064 35.879 35.879s-16.064 35.879-35.879 35.879z" />
<glyph unicode="&#xe948;" glyph-name="stop-watch" d="M357.818 896c0 17.673 14.327 32 32 32h244.364c17.671 0 32.001-14.327 32.001-32s-14.33-32-32.001-32h-90.182v-45.791c220.16-16.362 393.696-200.171 393.696-424.512 0-235.105-190.592-425.697-425.696-425.697-235.106 0-425.697 190.592-425.697 425.697 0 224.341 173.538 408.15 393.697 424.512v45.791h-90.182c-17.673 0-32 14.327-32 32zM222.385 864.324c12.497-12.497 12.497-32.758 0.001-45.255l-135.758-135.757c-12.497-12.497-32.758-12.497-45.255 0s-12.497 32.758 0 45.254l135.758 135.758c12.497 12.497 32.758 12.497 45.254 0zM801.613 864.324c12.499 12.497 32.762 12.497 45.254 0l135.763-135.758c12.493-12.497 12.493-32.758 0-45.254-12.499-12.497-32.762-12.497-45.261 0l-135.757 135.757c-12.493 12.497-12.493 32.758 0 45.255zM512 755.394c-199.76 0-361.697-161.937-361.697-361.697 0-199.758 161.937-361.697 361.697-361.697 199.757 0 361.696 161.939 361.696 361.697s-161.939 361.697-361.696 361.697zM498.424 656.485c17.673 0 32-14.327 32-32v-212.364h103.757c17.671 0 32.001-14.326 32.001-32s-14.33-32-32.001-32h-135.757c-17.673 0-32 14.327-32 32v244.364c0 17.673 14.327 32 32 32z" />
<glyph unicode="&#xe949;" glyph-name="time" d="M512 800c-194.404 0-352-157.596-352-352 0-194.406 157.596-352 352-352 194.406 0 352 157.594 352 352 0 194.404-157.594 352-352 352zM96 448c0 229.75 186.25 416 416 416 229.754 0 416-186.25 416-416 0-229.754-186.246-416-416-416-229.75 0-416 186.246-416 416zM500.364 677.818c17.673 0 32-14.327 32-32v-177.455h84.364c17.674 0 32.003-14.327 32.003-32s-14.329-32-32.003-32h-116.364c-17.673 0-32 14.327-32 32v209.455c0 17.673 14.327 32 32 32z" />
<glyph unicode="&#xe94a;" glyph-name="wifi" d="M512.001 809.699c-164.946 0-326.074-46.381-426.928-134.629-13.3-11.638-33.517-10.291-45.154 3.010s-10.29 33.517 3.010 45.155c116.358 101.814 294.624 150.465 469.073 150.465 174.451 0 352.716-48.651 469.075-150.466 13.299-11.638 14.643-31.855 3.008-45.155-11.642-13.3-31.853-14.648-45.152-3.010-100.858 88.248-261.984 134.63-426.931 134.63zM512.001 592.487c-109.062-0.001-216.195-35.366-290.62-103.587-13.028-11.942-33.27-11.061-45.212 1.967s-11.062 33.27 1.966 45.212c88.484 81.108 212.14 120.408 333.865 120.408s245.382-39.299 333.869-120.409c13.024-11.942 13.907-32.184 1.965-45.212s-32.186-13.908-45.216-1.966c-74.426 68.222-181.555 103.587-290.617 103.587zM512 375.275c-60.422 0.001-120.737-21.135-168.988-63.352-13.3-11.642-33.517-10.291-45.155 3.008s-10.29 33.517 3.011 45.155c60.355 52.81 135.798 79.19 211.133 79.189s150.777-26.381 211.135-79.192c13.299-11.638 14.643-31.855 3.008-45.152-11.642-13.306-31.853-14.65-45.158-3.014-48.248 42.222-108.563 63.358-168.986 63.358zM512.001 158.061c-19.816 0-35.879-16.064-35.879-35.878s16.063-35.878 35.879-35.878c19.815 0 35.878 16.064 35.878 35.878s-16.063 35.878-35.878 35.878zM412.122 122.182c0 55.162 44.717 99.878 99.879 99.878s99.878-44.717 99.878-99.878c0-55.162-44.717-99.878-99.878-99.878s-99.879 44.717-99.879 99.878z" />
<glyph unicode="&#xe94b;" glyph-name="card" d="M32 665.6c0 75.975 64.751 134.4 140.606 134.4h678.786c75.859 0 140.608-58.425 140.608-134.4v-435.2c0-75.974-64.749-134.4-140.608-134.4h-678.786c-75.855 0-140.606 58.426-140.606 134.4v435.2zM172.606 736c-44.108 0-76.606-33.267-76.606-70.4v-121.6h832v121.6c0 37.133-32.499 70.4-76.608 70.4h-678.786zM928 480h-832v-249.6c0-37.133 32.498-70.4 76.606-70.4h678.786c44.109 0 76.608 33.267 76.608 70.4v249.6zM194.909 307.2c0 17.673 14.327 32 32 32h190.061c17.673 0 32-14.327 32-32 0-17.67-14.327-32-32-32h-190.061c-17.673 0-32 14.33-32 32z" />
</font>
</defs>
</svg>
